<mxfile host="Electron" modified="2024-03-22T10:33:47.717Z" agent="Mozilla/5.0 (Windows NT 10.0; Win64; x64) AppleWebKit/537.36 (KHTML, like Gecko) draw.io/24.0.4 Chrome/120.0.6099.109 Electron/28.1.0 Safari/537.36" etag="aqmTN2S6NVQOIBcG8WDL" version="24.0.4" type="device">
  <diagram id="R2lEEEUBdFMjLlhIrx00" name="Page-1">
    <mxGraphModel dx="8317" dy="3493" grid="1" gridSize="10" guides="1" tooltips="1" connect="1" arrows="1" fold="1" page="1" pageScale="1" pageWidth="850" pageHeight="1100" math="0" shadow="0" extFonts="Permanent Marker^https://fonts.googleapis.com/css?family=Permanent+Marker">
      <root>
        <mxCell id="0" />
        <mxCell id="1" parent="0" />
        <mxCell id="YXRjS_rMBVFLt-Ks14Li-11" value="Payment" style="shape=table;startSize=30;container=1;collapsible=1;childLayout=tableLayout;fixedRows=1;rowLines=0;fontStyle=1;align=center;resizeLast=1;" parent="1" vertex="1">
          <mxGeometry x="1300" y="420" width="420" height="400" as="geometry" />
        </mxCell>
        <mxCell id="YXRjS_rMBVFLt-Ks14Li-12" value="" style="shape=partialRectangle;collapsible=0;dropTarget=0;pointerEvents=0;fillColor=none;points=[[0,0.5],[1,0.5]];portConstraint=eastwest;top=0;left=0;right=0;bottom=1;" parent="YXRjS_rMBVFLt-Ks14Li-11" vertex="1">
          <mxGeometry y="30" width="420" height="30" as="geometry" />
        </mxCell>
        <mxCell id="YXRjS_rMBVFLt-Ks14Li-13" value="PK" style="shape=partialRectangle;overflow=hidden;connectable=0;fillColor=none;top=0;left=0;bottom=0;right=0;fontStyle=1;" parent="YXRjS_rMBVFLt-Ks14Li-12" vertex="1">
          <mxGeometry width="30" height="30" as="geometry">
            <mxRectangle width="30" height="30" as="alternateBounds" />
          </mxGeometry>
        </mxCell>
        <mxCell id="YXRjS_rMBVFLt-Ks14Li-14" value="payment_idÂ int NOT NULL " style="shape=partialRectangle;overflow=hidden;connectable=0;fillColor=none;top=0;left=0;bottom=0;right=0;align=left;spacingLeft=6;fontStyle=5;" parent="YXRjS_rMBVFLt-Ks14Li-12" vertex="1">
          <mxGeometry x="30" width="390" height="30" as="geometry">
            <mxRectangle width="390" height="30" as="alternateBounds" />
          </mxGeometry>
        </mxCell>
        <mxCell id="YXRjS_rMBVFLt-Ks14Li-15" value="" style="shape=partialRectangle;collapsible=0;dropTarget=0;pointerEvents=0;fillColor=none;points=[[0,0.5],[1,0.5]];portConstraint=eastwest;top=0;left=0;right=0;bottom=0;" parent="YXRjS_rMBVFLt-Ks14Li-11" vertex="1">
          <mxGeometry y="60" width="420" height="30" as="geometry" />
        </mxCell>
        <mxCell id="YXRjS_rMBVFLt-Ks14Li-16" value="FK1" style="shape=partialRectangle;overflow=hidden;connectable=0;fillColor=none;top=0;left=0;bottom=0;right=0;" parent="YXRjS_rMBVFLt-Ks14Li-15" vertex="1">
          <mxGeometry width="30" height="30" as="geometry">
            <mxRectangle width="30" height="30" as="alternateBounds" />
          </mxGeometry>
        </mxCell>
        <mxCell id="YXRjS_rMBVFLt-Ks14Li-17" value="transaction_reference VARCHAR(100)" style="shape=partialRectangle;overflow=hidden;connectable=0;fillColor=none;top=0;left=0;bottom=0;right=0;align=left;spacingLeft=6;" parent="YXRjS_rMBVFLt-Ks14Li-15" vertex="1">
          <mxGeometry x="30" width="390" height="30" as="geometry">
            <mxRectangle width="390" height="30" as="alternateBounds" />
          </mxGeometry>
        </mxCell>
        <mxCell id="YXRjS_rMBVFLt-Ks14Li-18" value="" style="shape=partialRectangle;collapsible=0;dropTarget=0;pointerEvents=0;fillColor=none;points=[[0,0.5],[1,0.5]];portConstraint=eastwest;top=0;left=0;right=0;bottom=0;" parent="YXRjS_rMBVFLt-Ks14Li-11" vertex="1">
          <mxGeometry y="90" width="420" height="30" as="geometry" />
        </mxCell>
        <mxCell id="YXRjS_rMBVFLt-Ks14Li-19" value="" style="shape=partialRectangle;overflow=hidden;connectable=0;fillColor=none;top=0;left=0;bottom=0;right=0;" parent="YXRjS_rMBVFLt-Ks14Li-18" vertex="1">
          <mxGeometry width="30" height="30" as="geometry">
            <mxRectangle width="30" height="30" as="alternateBounds" />
          </mxGeometry>
        </mxCell>
        <mxCell id="YXRjS_rMBVFLt-Ks14Li-20" value="payment_type VARCHAR(30) NOT NULL" style="shape=partialRectangle;overflow=hidden;connectable=0;fillColor=none;top=0;left=0;bottom=0;right=0;align=left;spacingLeft=6;" parent="YXRjS_rMBVFLt-Ks14Li-18" vertex="1">
          <mxGeometry x="30" width="390" height="30" as="geometry">
            <mxRectangle width="390" height="30" as="alternateBounds" />
          </mxGeometry>
        </mxCell>
        <mxCell id="1_GCppXKczDWo7uRgGot-150" value="" style="shape=partialRectangle;collapsible=0;dropTarget=0;pointerEvents=0;fillColor=none;points=[[0,0.5],[1,0.5]];portConstraint=eastwest;top=0;left=0;right=0;bottom=0;" vertex="1" parent="YXRjS_rMBVFLt-Ks14Li-11">
          <mxGeometry y="120" width="420" height="30" as="geometry" />
        </mxCell>
        <mxCell id="1_GCppXKczDWo7uRgGot-151" value="" style="shape=partialRectangle;overflow=hidden;connectable=0;fillColor=none;top=0;left=0;bottom=0;right=0;" vertex="1" parent="1_GCppXKczDWo7uRgGot-150">
          <mxGeometry width="30" height="30" as="geometry">
            <mxRectangle width="30" height="30" as="alternateBounds" />
          </mxGeometry>
        </mxCell>
        <mxCell id="1_GCppXKczDWo7uRgGot-152" value="payment_status VARCHAR(30) NOT NULL" style="shape=partialRectangle;overflow=hidden;connectable=0;fillColor=none;top=0;left=0;bottom=0;right=0;align=left;spacingLeft=6;" vertex="1" parent="1_GCppXKczDWo7uRgGot-150">
          <mxGeometry x="30" width="390" height="30" as="geometry">
            <mxRectangle width="390" height="30" as="alternateBounds" />
          </mxGeometry>
        </mxCell>
        <mxCell id="1_GCppXKczDWo7uRgGot-153" value="" style="shape=partialRectangle;collapsible=0;dropTarget=0;pointerEvents=0;fillColor=none;points=[[0,0.5],[1,0.5]];portConstraint=eastwest;top=0;left=0;right=0;bottom=0;" vertex="1" parent="YXRjS_rMBVFLt-Ks14Li-11">
          <mxGeometry y="150" width="420" height="30" as="geometry" />
        </mxCell>
        <mxCell id="1_GCppXKczDWo7uRgGot-154" value="" style="shape=partialRectangle;overflow=hidden;connectable=0;fillColor=none;top=0;left=0;bottom=0;right=0;" vertex="1" parent="1_GCppXKczDWo7uRgGot-153">
          <mxGeometry width="30" height="30" as="geometry">
            <mxRectangle width="30" height="30" as="alternateBounds" />
          </mxGeometry>
        </mxCell>
        <mxCell id="1_GCppXKczDWo7uRgGot-155" value="amount_paid DECIMAL(10, 2) NOT NULL" style="shape=partialRectangle;overflow=hidden;connectable=0;fillColor=none;top=0;left=0;bottom=0;right=0;align=left;spacingLeft=6;" vertex="1" parent="1_GCppXKczDWo7uRgGot-153">
          <mxGeometry x="30" width="390" height="30" as="geometry">
            <mxRectangle width="390" height="30" as="alternateBounds" />
          </mxGeometry>
        </mxCell>
        <mxCell id="1_GCppXKczDWo7uRgGot-156" value="" style="shape=partialRectangle;collapsible=0;dropTarget=0;pointerEvents=0;fillColor=none;points=[[0,0.5],[1,0.5]];portConstraint=eastwest;top=0;left=0;right=0;bottom=0;" vertex="1" parent="YXRjS_rMBVFLt-Ks14Li-11">
          <mxGeometry y="180" width="420" height="30" as="geometry" />
        </mxCell>
        <mxCell id="1_GCppXKczDWo7uRgGot-157" value="" style="shape=partialRectangle;overflow=hidden;connectable=0;fillColor=none;top=0;left=0;bottom=0;right=0;" vertex="1" parent="1_GCppXKczDWo7uRgGot-156">
          <mxGeometry width="30" height="30" as="geometry">
            <mxRectangle width="30" height="30" as="alternateBounds" />
          </mxGeometry>
        </mxCell>
        <mxCell id="1_GCppXKczDWo7uRgGot-158" value="payer INT NOT NULL" style="shape=partialRectangle;overflow=hidden;connectable=0;fillColor=none;top=0;left=0;bottom=0;right=0;align=left;spacingLeft=6;" vertex="1" parent="1_GCppXKczDWo7uRgGot-156">
          <mxGeometry x="30" width="390" height="30" as="geometry">
            <mxRectangle width="390" height="30" as="alternateBounds" />
          </mxGeometry>
        </mxCell>
        <mxCell id="1_GCppXKczDWo7uRgGot-159" value="" style="shape=partialRectangle;collapsible=0;dropTarget=0;pointerEvents=0;fillColor=none;points=[[0,0.5],[1,0.5]];portConstraint=eastwest;top=0;left=0;right=0;bottom=0;" vertex="1" parent="YXRjS_rMBVFLt-Ks14Li-11">
          <mxGeometry y="210" width="420" height="30" as="geometry" />
        </mxCell>
        <mxCell id="1_GCppXKczDWo7uRgGot-160" value="" style="shape=partialRectangle;overflow=hidden;connectable=0;fillColor=none;top=0;left=0;bottom=0;right=0;" vertex="1" parent="1_GCppXKczDWo7uRgGot-159">
          <mxGeometry width="30" height="30" as="geometry">
            <mxRectangle width="30" height="30" as="alternateBounds" />
          </mxGeometry>
        </mxCell>
        <mxCell id="1_GCppXKczDWo7uRgGot-161" value="payment_date DATE DEFAULT CURRENT_DATE" style="shape=partialRectangle;overflow=hidden;connectable=0;fillColor=none;top=0;left=0;bottom=0;right=0;align=left;spacingLeft=6;" vertex="1" parent="1_GCppXKczDWo7uRgGot-159">
          <mxGeometry x="30" width="390" height="30" as="geometry">
            <mxRectangle width="390" height="30" as="alternateBounds" />
          </mxGeometry>
        </mxCell>
        <mxCell id="1_GCppXKczDWo7uRgGot-162" value="" style="shape=partialRectangle;collapsible=0;dropTarget=0;pointerEvents=0;fillColor=none;points=[[0,0.5],[1,0.5]];portConstraint=eastwest;top=0;left=0;right=0;bottom=0;" vertex="1" parent="YXRjS_rMBVFLt-Ks14Li-11">
          <mxGeometry y="240" width="420" height="30" as="geometry" />
        </mxCell>
        <mxCell id="1_GCppXKczDWo7uRgGot-163" value="" style="shape=partialRectangle;overflow=hidden;connectable=0;fillColor=none;top=0;left=0;bottom=0;right=0;" vertex="1" parent="1_GCppXKczDWo7uRgGot-162">
          <mxGeometry width="30" height="30" as="geometry">
            <mxRectangle width="30" height="30" as="alternateBounds" />
          </mxGeometry>
        </mxCell>
        <mxCell id="1_GCppXKczDWo7uRgGot-164" value="payment_method VARCHAR(50)" style="shape=partialRectangle;overflow=hidden;connectable=0;fillColor=none;top=0;left=0;bottom=0;right=0;align=left;spacingLeft=6;" vertex="1" parent="1_GCppXKczDWo7uRgGot-162">
          <mxGeometry x="30" width="390" height="30" as="geometry">
            <mxRectangle width="390" height="30" as="alternateBounds" />
          </mxGeometry>
        </mxCell>
        <mxCell id="1_GCppXKczDWo7uRgGot-165" value="" style="shape=partialRectangle;collapsible=0;dropTarget=0;pointerEvents=0;fillColor=none;points=[[0,0.5],[1,0.5]];portConstraint=eastwest;top=0;left=0;right=0;bottom=0;" vertex="1" parent="YXRjS_rMBVFLt-Ks14Li-11">
          <mxGeometry y="270" width="420" height="30" as="geometry" />
        </mxCell>
        <mxCell id="1_GCppXKczDWo7uRgGot-166" value="" style="shape=partialRectangle;overflow=hidden;connectable=0;fillColor=none;top=0;left=0;bottom=0;right=0;" vertex="1" parent="1_GCppXKczDWo7uRgGot-165">
          <mxGeometry width="30" height="30" as="geometry">
            <mxRectangle width="30" height="30" as="alternateBounds" />
          </mxGeometry>
        </mxCell>
        <mxCell id="1_GCppXKczDWo7uRgGot-167" value="shipment_date date NOT NULL" style="shape=partialRectangle;overflow=hidden;connectable=0;fillColor=none;top=0;left=0;bottom=0;right=0;align=left;spacingLeft=6;" vertex="1" parent="1_GCppXKczDWo7uRgGot-165">
          <mxGeometry x="30" width="390" height="30" as="geometry">
            <mxRectangle width="390" height="30" as="alternateBounds" />
          </mxGeometry>
        </mxCell>
        <mxCell id="1_GCppXKczDWo7uRgGot-168" value="" style="shape=partialRectangle;collapsible=0;dropTarget=0;pointerEvents=0;fillColor=none;points=[[0,0.5],[1,0.5]];portConstraint=eastwest;top=0;left=0;right=0;bottom=0;" vertex="1" parent="YXRjS_rMBVFLt-Ks14Li-11">
          <mxGeometry y="300" width="420" height="30" as="geometry" />
        </mxCell>
        <mxCell id="1_GCppXKczDWo7uRgGot-169" value="" style="shape=partialRectangle;overflow=hidden;connectable=0;fillColor=none;top=0;left=0;bottom=0;right=0;" vertex="1" parent="1_GCppXKczDWo7uRgGot-168">
          <mxGeometry width="30" height="30" as="geometry">
            <mxRectangle width="30" height="30" as="alternateBounds" />
          </mxGeometry>
        </mxCell>
        <mxCell id="1_GCppXKczDWo7uRgGot-170" value="case_proceeding INT NOT NULL" style="shape=partialRectangle;overflow=hidden;connectable=0;fillColor=none;top=0;left=0;bottom=0;right=0;align=left;spacingLeft=6;" vertex="1" parent="1_GCppXKczDWo7uRgGot-168">
          <mxGeometry x="30" width="390" height="30" as="geometry">
            <mxRectangle width="390" height="30" as="alternateBounds" />
          </mxGeometry>
        </mxCell>
        <mxCell id="1_GCppXKczDWo7uRgGot-171" value="" style="shape=partialRectangle;collapsible=0;dropTarget=0;pointerEvents=0;fillColor=none;points=[[0,0.5],[1,0.5]];portConstraint=eastwest;top=0;left=0;right=0;bottom=0;" vertex="1" parent="YXRjS_rMBVFLt-Ks14Li-11">
          <mxGeometry y="330" width="420" height="30" as="geometry" />
        </mxCell>
        <mxCell id="1_GCppXKczDWo7uRgGot-172" value="" style="shape=partialRectangle;overflow=hidden;connectable=0;fillColor=none;top=0;left=0;bottom=0;right=0;" vertex="1" parent="1_GCppXKczDWo7uRgGot-171">
          <mxGeometry width="30" height="30" as="geometry">
            <mxRectangle width="30" height="30" as="alternateBounds" />
          </mxGeometry>
        </mxCell>
        <mxCell id="1_GCppXKczDWo7uRgGot-173" value="created_by INT NOT NULL" style="shape=partialRectangle;overflow=hidden;connectable=0;fillColor=none;top=0;left=0;bottom=0;right=0;align=left;spacingLeft=6;" vertex="1" parent="1_GCppXKczDWo7uRgGot-171">
          <mxGeometry x="30" width="390" height="30" as="geometry">
            <mxRectangle width="390" height="30" as="alternateBounds" />
          </mxGeometry>
        </mxCell>
        <mxCell id="1_GCppXKczDWo7uRgGot-174" value="" style="shape=partialRectangle;collapsible=0;dropTarget=0;pointerEvents=0;fillColor=none;points=[[0,0.5],[1,0.5]];portConstraint=eastwest;top=0;left=0;right=0;bottom=0;" vertex="1" parent="YXRjS_rMBVFLt-Ks14Li-11">
          <mxGeometry y="360" width="420" height="30" as="geometry" />
        </mxCell>
        <mxCell id="1_GCppXKczDWo7uRgGot-175" value="" style="shape=partialRectangle;overflow=hidden;connectable=0;fillColor=none;top=0;left=0;bottom=0;right=0;" vertex="1" parent="1_GCppXKczDWo7uRgGot-174">
          <mxGeometry width="30" height="30" as="geometry">
            <mxRectangle width="30" height="30" as="alternateBounds" />
          </mxGeometry>
        </mxCell>
        <mxCell id="1_GCppXKczDWo7uRgGot-176" value="created_on DATETIME DEFAULT CURRENT_TIMESTAMP" style="shape=partialRectangle;overflow=hidden;connectable=0;fillColor=none;top=0;left=0;bottom=0;right=0;align=left;spacingLeft=6;" vertex="1" parent="1_GCppXKczDWo7uRgGot-174">
          <mxGeometry x="30" width="390" height="30" as="geometry">
            <mxRectangle width="390" height="30" as="alternateBounds" />
          </mxGeometry>
        </mxCell>
        <mxCell id="YXRjS_rMBVFLt-Ks14Li-21" value="Invoice" style="shape=table;startSize=30;container=1;collapsible=1;childLayout=tableLayout;fixedRows=1;rowLines=0;fontStyle=1;align=center;resizeLast=1;" parent="1" vertex="1">
          <mxGeometry x="-470" y="1130" width="380" height="330" as="geometry" />
        </mxCell>
        <mxCell id="YXRjS_rMBVFLt-Ks14Li-22" value="" style="shape=partialRectangle;collapsible=0;dropTarget=0;pointerEvents=0;fillColor=none;points=[[0,0.5],[1,0.5]];portConstraint=eastwest;top=0;left=0;right=0;bottom=1;" parent="YXRjS_rMBVFLt-Ks14Li-21" vertex="1">
          <mxGeometry y="30" width="380" height="30" as="geometry" />
        </mxCell>
        <mxCell id="YXRjS_rMBVFLt-Ks14Li-23" value="PK" style="shape=partialRectangle;overflow=hidden;connectable=0;fillColor=none;top=0;left=0;bottom=0;right=0;fontStyle=1;" parent="YXRjS_rMBVFLt-Ks14Li-22" vertex="1">
          <mxGeometry width="30" height="30" as="geometry">
            <mxRectangle width="30" height="30" as="alternateBounds" />
          </mxGeometry>
        </mxCell>
        <mxCell id="YXRjS_rMBVFLt-Ks14Li-24" value="invoice_idÂ int NOT NULL " style="shape=partialRectangle;overflow=hidden;connectable=0;fillColor=none;top=0;left=0;bottom=0;right=0;align=left;spacingLeft=6;fontStyle=5;" parent="YXRjS_rMBVFLt-Ks14Li-22" vertex="1">
          <mxGeometry x="30" width="350" height="30" as="geometry">
            <mxRectangle width="350" height="30" as="alternateBounds" />
          </mxGeometry>
        </mxCell>
        <mxCell id="YXRjS_rMBVFLt-Ks14Li-25" value="" style="shape=partialRectangle;collapsible=0;dropTarget=0;pointerEvents=0;fillColor=none;points=[[0,0.5],[1,0.5]];portConstraint=eastwest;top=0;left=0;right=0;bottom=0;" parent="YXRjS_rMBVFLt-Ks14Li-21" vertex="1">
          <mxGeometry y="60" width="380" height="30" as="geometry" />
        </mxCell>
        <mxCell id="YXRjS_rMBVFLt-Ks14Li-26" value="" style="shape=partialRectangle;overflow=hidden;connectable=0;fillColor=none;top=0;left=0;bottom=0;right=0;" parent="YXRjS_rMBVFLt-Ks14Li-25" vertex="1">
          <mxGeometry width="30" height="30" as="geometry">
            <mxRectangle width="30" height="30" as="alternateBounds" />
          </mxGeometry>
        </mxCell>
        <mxCell id="YXRjS_rMBVFLt-Ks14Li-27" value="invoice_type VARCHAR(30) NOT NULL" style="shape=partialRectangle;overflow=hidden;connectable=0;fillColor=none;top=0;left=0;bottom=0;right=0;align=left;spacingLeft=6;" parent="YXRjS_rMBVFLt-Ks14Li-25" vertex="1">
          <mxGeometry x="30" width="350" height="30" as="geometry">
            <mxRectangle width="350" height="30" as="alternateBounds" />
          </mxGeometry>
        </mxCell>
        <mxCell id="YXRjS_rMBVFLt-Ks14Li-28" value="" style="shape=partialRectangle;collapsible=0;dropTarget=0;pointerEvents=0;fillColor=none;points=[[0,0.5],[1,0.5]];portConstraint=eastwest;top=0;left=0;right=0;bottom=0;" parent="YXRjS_rMBVFLt-Ks14Li-21" vertex="1">
          <mxGeometry y="90" width="380" height="30" as="geometry" />
        </mxCell>
        <mxCell id="YXRjS_rMBVFLt-Ks14Li-29" value="" style="shape=partialRectangle;overflow=hidden;connectable=0;fillColor=none;top=0;left=0;bottom=0;right=0;" parent="YXRjS_rMBVFLt-Ks14Li-28" vertex="1">
          <mxGeometry width="30" height="30" as="geometry">
            <mxRectangle width="30" height="30" as="alternateBounds" />
          </mxGeometry>
        </mxCell>
        <mxCell id="YXRjS_rMBVFLt-Ks14Li-30" value="invoice_status VARCHAR(30) NOT NULL" style="shape=partialRectangle;overflow=hidden;connectable=0;fillColor=none;top=0;left=0;bottom=0;right=0;align=left;spacingLeft=6;" parent="YXRjS_rMBVFLt-Ks14Li-28" vertex="1">
          <mxGeometry x="30" width="350" height="30" as="geometry">
            <mxRectangle width="350" height="30" as="alternateBounds" />
          </mxGeometry>
        </mxCell>
        <mxCell id="1_GCppXKczDWo7uRgGot-129" value="" style="shape=partialRectangle;collapsible=0;dropTarget=0;pointerEvents=0;fillColor=none;points=[[0,0.5],[1,0.5]];portConstraint=eastwest;top=0;left=0;right=0;bottom=0;" vertex="1" parent="YXRjS_rMBVFLt-Ks14Li-21">
          <mxGeometry y="120" width="380" height="30" as="geometry" />
        </mxCell>
        <mxCell id="1_GCppXKczDWo7uRgGot-130" value="" style="shape=partialRectangle;overflow=hidden;connectable=0;fillColor=none;top=0;left=0;bottom=0;right=0;" vertex="1" parent="1_GCppXKczDWo7uRgGot-129">
          <mxGeometry width="30" height="30" as="geometry">
            <mxRectangle width="30" height="30" as="alternateBounds" />
          </mxGeometry>
        </mxCell>
        <mxCell id="1_GCppXKczDWo7uRgGot-131" value="invoice_amount INT NOT NULL" style="shape=partialRectangle;overflow=hidden;connectable=0;fillColor=none;top=0;left=0;bottom=0;right=0;align=left;spacingLeft=6;" vertex="1" parent="1_GCppXKczDWo7uRgGot-129">
          <mxGeometry x="30" width="350" height="30" as="geometry">
            <mxRectangle width="350" height="30" as="alternateBounds" />
          </mxGeometry>
        </mxCell>
        <mxCell id="1_GCppXKczDWo7uRgGot-132" value="" style="shape=partialRectangle;collapsible=0;dropTarget=0;pointerEvents=0;fillColor=none;points=[[0,0.5],[1,0.5]];portConstraint=eastwest;top=0;left=0;right=0;bottom=0;" vertex="1" parent="YXRjS_rMBVFLt-Ks14Li-21">
          <mxGeometry y="150" width="380" height="30" as="geometry" />
        </mxCell>
        <mxCell id="1_GCppXKczDWo7uRgGot-133" value="" style="shape=partialRectangle;overflow=hidden;connectable=0;fillColor=none;top=0;left=0;bottom=0;right=0;" vertex="1" parent="1_GCppXKczDWo7uRgGot-132">
          <mxGeometry width="30" height="30" as="geometry">
            <mxRectangle width="30" height="30" as="alternateBounds" />
          </mxGeometry>
        </mxCell>
        <mxCell id="1_GCppXKczDWo7uRgGot-134" value="participant INT NOT NULL" style="shape=partialRectangle;overflow=hidden;connectable=0;fillColor=none;top=0;left=0;bottom=0;right=0;align=left;spacingLeft=6;" vertex="1" parent="1_GCppXKczDWo7uRgGot-132">
          <mxGeometry x="30" width="350" height="30" as="geometry">
            <mxRectangle width="350" height="30" as="alternateBounds" />
          </mxGeometry>
        </mxCell>
        <mxCell id="1_GCppXKczDWo7uRgGot-135" value="" style="shape=partialRectangle;collapsible=0;dropTarget=0;pointerEvents=0;fillColor=none;points=[[0,0.5],[1,0.5]];portConstraint=eastwest;top=0;left=0;right=0;bottom=0;" vertex="1" parent="YXRjS_rMBVFLt-Ks14Li-21">
          <mxGeometry y="180" width="380" height="30" as="geometry" />
        </mxCell>
        <mxCell id="1_GCppXKczDWo7uRgGot-136" value="" style="shape=partialRectangle;overflow=hidden;connectable=0;fillColor=none;top=0;left=0;bottom=0;right=0;" vertex="1" parent="1_GCppXKczDWo7uRgGot-135">
          <mxGeometry width="30" height="30" as="geometry">
            <mxRectangle width="30" height="30" as="alternateBounds" />
          </mxGeometry>
        </mxCell>
        <mxCell id="1_GCppXKczDWo7uRgGot-137" value="invoice_date DATE DEFAULT CURRENT_DATE" style="shape=partialRectangle;overflow=hidden;connectable=0;fillColor=none;top=0;left=0;bottom=0;right=0;align=left;spacingLeft=6;" vertex="1" parent="1_GCppXKczDWo7uRgGot-135">
          <mxGeometry x="30" width="350" height="30" as="geometry">
            <mxRectangle width="350" height="30" as="alternateBounds" />
          </mxGeometry>
        </mxCell>
        <mxCell id="1_GCppXKczDWo7uRgGot-138" value="" style="shape=partialRectangle;collapsible=0;dropTarget=0;pointerEvents=0;fillColor=none;points=[[0,0.5],[1,0.5]];portConstraint=eastwest;top=0;left=0;right=0;bottom=0;" vertex="1" parent="YXRjS_rMBVFLt-Ks14Li-21">
          <mxGeometry y="210" width="380" height="30" as="geometry" />
        </mxCell>
        <mxCell id="1_GCppXKczDWo7uRgGot-139" value="" style="shape=partialRectangle;overflow=hidden;connectable=0;fillColor=none;top=0;left=0;bottom=0;right=0;" vertex="1" parent="1_GCppXKczDWo7uRgGot-138">
          <mxGeometry width="30" height="30" as="geometry">
            <mxRectangle width="30" height="30" as="alternateBounds" />
          </mxGeometry>
        </mxCell>
        <mxCell id="1_GCppXKczDWo7uRgGot-140" value="invoice_due_date DATE NOT NULL" style="shape=partialRectangle;overflow=hidden;connectable=0;fillColor=none;top=0;left=0;bottom=0;right=0;align=left;spacingLeft=6;" vertex="1" parent="1_GCppXKczDWo7uRgGot-138">
          <mxGeometry x="30" width="350" height="30" as="geometry">
            <mxRectangle width="350" height="30" as="alternateBounds" />
          </mxGeometry>
        </mxCell>
        <mxCell id="1_GCppXKczDWo7uRgGot-141" value="" style="shape=partialRectangle;collapsible=0;dropTarget=0;pointerEvents=0;fillColor=none;points=[[0,0.5],[1,0.5]];portConstraint=eastwest;top=0;left=0;right=0;bottom=0;" vertex="1" parent="YXRjS_rMBVFLt-Ks14Li-21">
          <mxGeometry y="240" width="380" height="30" as="geometry" />
        </mxCell>
        <mxCell id="1_GCppXKczDWo7uRgGot-142" value="" style="shape=partialRectangle;overflow=hidden;connectable=0;fillColor=none;top=0;left=0;bottom=0;right=0;" vertex="1" parent="1_GCppXKczDWo7uRgGot-141">
          <mxGeometry width="30" height="30" as="geometry">
            <mxRectangle width="30" height="30" as="alternateBounds" />
          </mxGeometry>
        </mxCell>
        <mxCell id="1_GCppXKczDWo7uRgGot-143" value="case_proceeding INT NOT NULL" style="shape=partialRectangle;overflow=hidden;connectable=0;fillColor=none;top=0;left=0;bottom=0;right=0;align=left;spacingLeft=6;" vertex="1" parent="1_GCppXKczDWo7uRgGot-141">
          <mxGeometry x="30" width="350" height="30" as="geometry">
            <mxRectangle width="350" height="30" as="alternateBounds" />
          </mxGeometry>
        </mxCell>
        <mxCell id="1_GCppXKczDWo7uRgGot-144" value="" style="shape=partialRectangle;collapsible=0;dropTarget=0;pointerEvents=0;fillColor=none;points=[[0,0.5],[1,0.5]];portConstraint=eastwest;top=0;left=0;right=0;bottom=0;" vertex="1" parent="YXRjS_rMBVFLt-Ks14Li-21">
          <mxGeometry y="270" width="380" height="30" as="geometry" />
        </mxCell>
        <mxCell id="1_GCppXKczDWo7uRgGot-145" value="" style="shape=partialRectangle;overflow=hidden;connectable=0;fillColor=none;top=0;left=0;bottom=0;right=0;" vertex="1" parent="1_GCppXKczDWo7uRgGot-144">
          <mxGeometry width="30" height="30" as="geometry">
            <mxRectangle width="30" height="30" as="alternateBounds" />
          </mxGeometry>
        </mxCell>
        <mxCell id="1_GCppXKczDWo7uRgGot-146" value="reated_by INT NOT NULL" style="shape=partialRectangle;overflow=hidden;connectable=0;fillColor=none;top=0;left=0;bottom=0;right=0;align=left;spacingLeft=6;" vertex="1" parent="1_GCppXKczDWo7uRgGot-144">
          <mxGeometry x="30" width="350" height="30" as="geometry">
            <mxRectangle width="350" height="30" as="alternateBounds" />
          </mxGeometry>
        </mxCell>
        <mxCell id="1_GCppXKczDWo7uRgGot-147" value="" style="shape=partialRectangle;collapsible=0;dropTarget=0;pointerEvents=0;fillColor=none;points=[[0,0.5],[1,0.5]];portConstraint=eastwest;top=0;left=0;right=0;bottom=0;" vertex="1" parent="YXRjS_rMBVFLt-Ks14Li-21">
          <mxGeometry y="300" width="380" height="30" as="geometry" />
        </mxCell>
        <mxCell id="1_GCppXKczDWo7uRgGot-148" value="" style="shape=partialRectangle;overflow=hidden;connectable=0;fillColor=none;top=0;left=0;bottom=0;right=0;" vertex="1" parent="1_GCppXKczDWo7uRgGot-147">
          <mxGeometry width="30" height="30" as="geometry">
            <mxRectangle width="30" height="30" as="alternateBounds" />
          </mxGeometry>
        </mxCell>
        <mxCell id="1_GCppXKczDWo7uRgGot-149" value="created_on DATETIME DEFAULT CURRENT_TIMESTAMP" style="shape=partialRectangle;overflow=hidden;connectable=0;fillColor=none;top=0;left=0;bottom=0;right=0;align=left;spacingLeft=6;" vertex="1" parent="1_GCppXKczDWo7uRgGot-147">
          <mxGeometry x="30" width="350" height="30" as="geometry">
            <mxRectangle width="350" height="30" as="alternateBounds" />
          </mxGeometry>
        </mxCell>
        <mxCell id="YXRjS_rMBVFLt-Ks14Li-52" value="User" style="shape=table;startSize=30;container=1;collapsible=1;childLayout=tableLayout;fixedRows=1;rowLines=0;fontStyle=1;align=center;resizeLast=1;" parent="1" vertex="1">
          <mxGeometry x="340" y="680" width="250" height="300" as="geometry" />
        </mxCell>
        <mxCell id="YXRjS_rMBVFLt-Ks14Li-53" value="" style="shape=partialRectangle;collapsible=0;dropTarget=0;pointerEvents=0;fillColor=none;points=[[0,0.5],[1,0.5]];portConstraint=eastwest;top=0;left=0;right=0;bottom=1;" parent="YXRjS_rMBVFLt-Ks14Li-52" vertex="1">
          <mxGeometry y="30" width="250" height="30" as="geometry" />
        </mxCell>
        <mxCell id="YXRjS_rMBVFLt-Ks14Li-54" value="PK" style="shape=partialRectangle;overflow=hidden;connectable=0;fillColor=none;top=0;left=0;bottom=0;right=0;fontStyle=1;" parent="YXRjS_rMBVFLt-Ks14Li-53" vertex="1">
          <mxGeometry width="30" height="30" as="geometry">
            <mxRectangle width="30" height="30" as="alternateBounds" />
          </mxGeometry>
        </mxCell>
        <mxCell id="YXRjS_rMBVFLt-Ks14Li-55" value="user_id int NOT NULL" style="shape=partialRectangle;overflow=hidden;connectable=0;fillColor=none;top=0;left=0;bottom=0;right=0;align=left;spacingLeft=6;fontStyle=5;" parent="YXRjS_rMBVFLt-Ks14Li-53" vertex="1">
          <mxGeometry x="30" width="220" height="30" as="geometry">
            <mxRectangle width="220" height="30" as="alternateBounds" />
          </mxGeometry>
        </mxCell>
        <mxCell id="YXRjS_rMBVFLt-Ks14Li-56" value="" style="shape=partialRectangle;collapsible=0;dropTarget=0;pointerEvents=0;fillColor=none;points=[[0,0.5],[1,0.5]];portConstraint=eastwest;top=0;left=0;right=0;bottom=0;" parent="YXRjS_rMBVFLt-Ks14Li-52" vertex="1">
          <mxGeometry y="60" width="250" height="30" as="geometry" />
        </mxCell>
        <mxCell id="YXRjS_rMBVFLt-Ks14Li-57" value="" style="shape=partialRectangle;overflow=hidden;connectable=0;fillColor=none;top=0;left=0;bottom=0;right=0;" parent="YXRjS_rMBVFLt-Ks14Li-56" vertex="1">
          <mxGeometry width="30" height="30" as="geometry">
            <mxRectangle width="30" height="30" as="alternateBounds" />
          </mxGeometry>
        </mxCell>
        <mxCell id="YXRjS_rMBVFLt-Ks14Li-58" value="first_name varchar(30) NOT NULL" style="shape=partialRectangle;overflow=hidden;connectable=0;fillColor=none;top=0;left=0;bottom=0;right=0;align=left;spacingLeft=6;" parent="YXRjS_rMBVFLt-Ks14Li-56" vertex="1">
          <mxGeometry x="30" width="220" height="30" as="geometry">
            <mxRectangle width="220" height="30" as="alternateBounds" />
          </mxGeometry>
        </mxCell>
        <mxCell id="YXRjS_rMBVFLt-Ks14Li-59" value="" style="shape=partialRectangle;collapsible=0;dropTarget=0;pointerEvents=0;fillColor=none;points=[[0,0.5],[1,0.5]];portConstraint=eastwest;top=0;left=0;right=0;bottom=0;" parent="YXRjS_rMBVFLt-Ks14Li-52" vertex="1">
          <mxGeometry y="90" width="250" height="30" as="geometry" />
        </mxCell>
        <mxCell id="YXRjS_rMBVFLt-Ks14Li-60" value="" style="shape=partialRectangle;overflow=hidden;connectable=0;fillColor=none;top=0;left=0;bottom=0;right=0;" parent="YXRjS_rMBVFLt-Ks14Li-59" vertex="1">
          <mxGeometry width="30" height="30" as="geometry">
            <mxRectangle width="30" height="30" as="alternateBounds" />
          </mxGeometry>
        </mxCell>
        <mxCell id="YXRjS_rMBVFLt-Ks14Li-61" value="last_name VARCHAR(30)" style="shape=partialRectangle;overflow=hidden;connectable=0;fillColor=none;top=0;left=0;bottom=0;right=0;align=left;spacingLeft=6;" parent="YXRjS_rMBVFLt-Ks14Li-59" vertex="1">
          <mxGeometry x="30" width="220" height="30" as="geometry">
            <mxRectangle width="220" height="30" as="alternateBounds" />
          </mxGeometry>
        </mxCell>
        <mxCell id="YXRjS_rMBVFLt-Ks14Li-62" value="" style="shape=partialRectangle;collapsible=0;dropTarget=0;pointerEvents=0;fillColor=none;points=[[0,0.5],[1,0.5]];portConstraint=eastwest;top=0;left=0;right=0;bottom=0;" parent="YXRjS_rMBVFLt-Ks14Li-52" vertex="1">
          <mxGeometry y="120" width="250" height="30" as="geometry" />
        </mxCell>
        <mxCell id="YXRjS_rMBVFLt-Ks14Li-63" value="" style="shape=partialRectangle;overflow=hidden;connectable=0;fillColor=none;top=0;left=0;bottom=0;right=0;" parent="YXRjS_rMBVFLt-Ks14Li-62" vertex="1">
          <mxGeometry width="30" height="30" as="geometry">
            <mxRectangle width="30" height="30" as="alternateBounds" />
          </mxGeometry>
        </mxCell>
        <mxCell id="YXRjS_rMBVFLt-Ks14Li-64" value="email VARCHAR(254) NOT NULL" style="shape=partialRectangle;overflow=hidden;connectable=0;fillColor=none;top=0;left=0;bottom=0;right=0;align=left;spacingLeft=6;" parent="YXRjS_rMBVFLt-Ks14Li-62" vertex="1">
          <mxGeometry x="30" width="220" height="30" as="geometry">
            <mxRectangle width="220" height="30" as="alternateBounds" />
          </mxGeometry>
        </mxCell>
        <mxCell id="YXRjS_rMBVFLt-Ks14Li-65" value="" style="shape=partialRectangle;collapsible=0;dropTarget=0;pointerEvents=0;fillColor=none;points=[[0,0.5],[1,0.5]];portConstraint=eastwest;top=0;left=0;right=0;bottom=0;" parent="YXRjS_rMBVFLt-Ks14Li-52" vertex="1">
          <mxGeometry y="150" width="250" height="30" as="geometry" />
        </mxCell>
        <mxCell id="YXRjS_rMBVFLt-Ks14Li-66" value="" style="shape=partialRectangle;overflow=hidden;connectable=0;fillColor=none;top=0;left=0;bottom=0;right=0;" parent="YXRjS_rMBVFLt-Ks14Li-65" vertex="1">
          <mxGeometry width="30" height="30" as="geometry">
            <mxRectangle width="30" height="30" as="alternateBounds" />
          </mxGeometry>
        </mxCell>
        <mxCell id="YXRjS_rMBVFLt-Ks14Li-67" value="role VARCHAR(30) NOT NULL" style="shape=partialRectangle;overflow=hidden;connectable=0;fillColor=none;top=0;left=0;bottom=0;right=0;align=left;spacingLeft=6;" parent="YXRjS_rMBVFLt-Ks14Li-65" vertex="1">
          <mxGeometry x="30" width="220" height="30" as="geometry">
            <mxRectangle width="220" height="30" as="alternateBounds" />
          </mxGeometry>
        </mxCell>
        <mxCell id="1_GCppXKczDWo7uRgGot-49" value="" style="shape=partialRectangle;collapsible=0;dropTarget=0;pointerEvents=0;fillColor=none;points=[[0,0.5],[1,0.5]];portConstraint=eastwest;top=0;left=0;right=0;bottom=0;" vertex="1" parent="YXRjS_rMBVFLt-Ks14Li-52">
          <mxGeometry y="180" width="250" height="30" as="geometry" />
        </mxCell>
        <mxCell id="1_GCppXKczDWo7uRgGot-50" value="" style="shape=partialRectangle;overflow=hidden;connectable=0;fillColor=none;top=0;left=0;bottom=0;right=0;" vertex="1" parent="1_GCppXKczDWo7uRgGot-49">
          <mxGeometry width="30" height="30" as="geometry">
            <mxRectangle width="30" height="30" as="alternateBounds" />
          </mxGeometry>
        </mxCell>
        <mxCell id="1_GCppXKczDWo7uRgGot-51" value="phone_number VARCHAR(15)" style="shape=partialRectangle;overflow=hidden;connectable=0;fillColor=none;top=0;left=0;bottom=0;right=0;align=left;spacingLeft=6;" vertex="1" parent="1_GCppXKczDWo7uRgGot-49">
          <mxGeometry x="30" width="220" height="30" as="geometry">
            <mxRectangle width="220" height="30" as="alternateBounds" />
          </mxGeometry>
        </mxCell>
        <mxCell id="1_GCppXKczDWo7uRgGot-52" value="" style="shape=partialRectangle;collapsible=0;dropTarget=0;pointerEvents=0;fillColor=none;points=[[0,0.5],[1,0.5]];portConstraint=eastwest;top=0;left=0;right=0;bottom=0;" vertex="1" parent="YXRjS_rMBVFLt-Ks14Li-52">
          <mxGeometry y="210" width="250" height="30" as="geometry" />
        </mxCell>
        <mxCell id="1_GCppXKczDWo7uRgGot-53" value="" style="shape=partialRectangle;overflow=hidden;connectable=0;fillColor=none;top=0;left=0;bottom=0;right=0;" vertex="1" parent="1_GCppXKczDWo7uRgGot-52">
          <mxGeometry width="30" height="30" as="geometry">
            <mxRectangle width="30" height="30" as="alternateBounds" />
          </mxGeometry>
        </mxCell>
        <mxCell id="1_GCppXKczDWo7uRgGot-54" value="date_of_birth date NOT NULL" style="shape=partialRectangle;overflow=hidden;connectable=0;fillColor=none;top=0;left=0;bottom=0;right=0;align=left;spacingLeft=6;" vertex="1" parent="1_GCppXKczDWo7uRgGot-52">
          <mxGeometry x="30" width="220" height="30" as="geometry">
            <mxRectangle width="220" height="30" as="alternateBounds" />
          </mxGeometry>
        </mxCell>
        <mxCell id="1_GCppXKczDWo7uRgGot-55" value="" style="shape=partialRectangle;collapsible=0;dropTarget=0;pointerEvents=0;fillColor=none;points=[[0,0.5],[1,0.5]];portConstraint=eastwest;top=0;left=0;right=0;bottom=0;" vertex="1" parent="YXRjS_rMBVFLt-Ks14Li-52">
          <mxGeometry y="240" width="250" height="30" as="geometry" />
        </mxCell>
        <mxCell id="1_GCppXKczDWo7uRgGot-56" value="" style="shape=partialRectangle;overflow=hidden;connectable=0;fillColor=none;top=0;left=0;bottom=0;right=0;" vertex="1" parent="1_GCppXKczDWo7uRgGot-55">
          <mxGeometry width="30" height="30" as="geometry">
            <mxRectangle width="30" height="30" as="alternateBounds" />
          </mxGeometry>
        </mxCell>
        <mxCell id="1_GCppXKczDWo7uRgGot-57" value="address VARCHAR(255) NOT NULL" style="shape=partialRectangle;overflow=hidden;connectable=0;fillColor=none;top=0;left=0;bottom=0;right=0;align=left;spacingLeft=6;" vertex="1" parent="1_GCppXKczDWo7uRgGot-55">
          <mxGeometry x="30" width="220" height="30" as="geometry">
            <mxRectangle width="220" height="30" as="alternateBounds" />
          </mxGeometry>
        </mxCell>
        <mxCell id="1_GCppXKczDWo7uRgGot-58" value="" style="shape=partialRectangle;collapsible=0;dropTarget=0;pointerEvents=0;fillColor=none;points=[[0,0.5],[1,0.5]];portConstraint=eastwest;top=0;left=0;right=0;bottom=0;" vertex="1" parent="YXRjS_rMBVFLt-Ks14Li-52">
          <mxGeometry y="270" width="250" height="30" as="geometry" />
        </mxCell>
        <mxCell id="1_GCppXKczDWo7uRgGot-59" value="" style="shape=partialRectangle;overflow=hidden;connectable=0;fillColor=none;top=0;left=0;bottom=0;right=0;" vertex="1" parent="1_GCppXKczDWo7uRgGot-58">
          <mxGeometry width="30" height="30" as="geometry">
            <mxRectangle width="30" height="30" as="alternateBounds" />
          </mxGeometry>
        </mxCell>
        <mxCell id="1_GCppXKczDWo7uRgGot-60" value="password VARCHAR(30) NOT NULL" style="shape=partialRectangle;overflow=hidden;connectable=0;fillColor=none;top=0;left=0;bottom=0;right=0;align=left;spacingLeft=6;" vertex="1" parent="1_GCppXKczDWo7uRgGot-58">
          <mxGeometry x="30" width="220" height="30" as="geometry">
            <mxRectangle width="220" height="30" as="alternateBounds" />
          </mxGeometry>
        </mxCell>
        <mxCell id="YXRjS_rMBVFLt-Ks14Li-68" value="Court" style="shape=table;startSize=30;container=1;collapsible=1;childLayout=tableLayout;fixedRows=1;rowLines=0;fontStyle=1;align=center;resizeLast=1;" parent="1" vertex="1">
          <mxGeometry x="-740" y="150" width="370" height="300" as="geometry" />
        </mxCell>
        <mxCell id="YXRjS_rMBVFLt-Ks14Li-69" value="" style="shape=partialRectangle;collapsible=0;dropTarget=0;pointerEvents=0;fillColor=none;points=[[0,0.5],[1,0.5]];portConstraint=eastwest;top=0;left=0;right=0;bottom=1;" parent="YXRjS_rMBVFLt-Ks14Li-68" vertex="1">
          <mxGeometry y="30" width="370" height="30" as="geometry" />
        </mxCell>
        <mxCell id="YXRjS_rMBVFLt-Ks14Li-70" value="PK" style="shape=partialRectangle;overflow=hidden;connectable=0;fillColor=none;top=0;left=0;bottom=0;right=0;fontStyle=1;" parent="YXRjS_rMBVFLt-Ks14Li-69" vertex="1">
          <mxGeometry width="30" height="30" as="geometry">
            <mxRectangle width="30" height="30" as="alternateBounds" />
          </mxGeometry>
        </mxCell>
        <mxCell id="YXRjS_rMBVFLt-Ks14Li-71" value="court_id int NOT NULL" style="shape=partialRectangle;overflow=hidden;connectable=0;fillColor=none;top=0;left=0;bottom=0;right=0;align=left;spacingLeft=6;fontStyle=5;" parent="YXRjS_rMBVFLt-Ks14Li-69" vertex="1">
          <mxGeometry x="30" width="340" height="30" as="geometry">
            <mxRectangle width="340" height="30" as="alternateBounds" />
          </mxGeometry>
        </mxCell>
        <mxCell id="YXRjS_rMBVFLt-Ks14Li-74" value="" style="shape=partialRectangle;collapsible=0;dropTarget=0;pointerEvents=0;fillColor=none;points=[[0,0.5],[1,0.5]];portConstraint=eastwest;top=0;left=0;right=0;bottom=0;" parent="YXRjS_rMBVFLt-Ks14Li-68" vertex="1">
          <mxGeometry y="60" width="370" height="30" as="geometry" />
        </mxCell>
        <mxCell id="YXRjS_rMBVFLt-Ks14Li-75" value="" style="shape=partialRectangle;overflow=hidden;connectable=0;fillColor=none;top=0;left=0;bottom=0;right=0;" parent="YXRjS_rMBVFLt-Ks14Li-74" vertex="1">
          <mxGeometry width="30" height="30" as="geometry">
            <mxRectangle width="30" height="30" as="alternateBounds" />
          </mxGeometry>
        </mxCell>
        <mxCell id="YXRjS_rMBVFLt-Ks14Li-76" value="name VARCHAR(255) NOT NULL" style="shape=partialRectangle;overflow=hidden;connectable=0;fillColor=none;top=0;left=0;bottom=0;right=0;align=left;spacingLeft=6;" parent="YXRjS_rMBVFLt-Ks14Li-74" vertex="1">
          <mxGeometry x="30" width="340" height="30" as="geometry">
            <mxRectangle width="340" height="30" as="alternateBounds" />
          </mxGeometry>
        </mxCell>
        <mxCell id="YXRjS_rMBVFLt-Ks14Li-80" value="" style="shape=partialRectangle;collapsible=0;dropTarget=0;pointerEvents=0;fillColor=none;points=[[0,0.5],[1,0.5]];portConstraint=eastwest;top=0;left=0;right=0;bottom=0;" parent="YXRjS_rMBVFLt-Ks14Li-68" vertex="1">
          <mxGeometry y="90" width="370" height="30" as="geometry" />
        </mxCell>
        <mxCell id="YXRjS_rMBVFLt-Ks14Li-81" value="" style="shape=partialRectangle;overflow=hidden;connectable=0;fillColor=none;top=0;left=0;bottom=0;right=0;" parent="YXRjS_rMBVFLt-Ks14Li-80" vertex="1">
          <mxGeometry width="30" height="30" as="geometry">
            <mxRectangle width="30" height="30" as="alternateBounds" />
          </mxGeometry>
        </mxCell>
        <mxCell id="YXRjS_rMBVFLt-Ks14Li-82" value="court_email VARCHAR(254) NOT NULL" style="shape=partialRectangle;overflow=hidden;connectable=0;fillColor=none;top=0;left=0;bottom=0;right=0;align=left;spacingLeft=6;" parent="YXRjS_rMBVFLt-Ks14Li-80" vertex="1">
          <mxGeometry x="30" width="340" height="30" as="geometry">
            <mxRectangle width="340" height="30" as="alternateBounds" />
          </mxGeometry>
        </mxCell>
        <mxCell id="YXRjS_rMBVFLt-Ks14Li-83" value="" style="shape=partialRectangle;collapsible=0;dropTarget=0;pointerEvents=0;fillColor=none;points=[[0,0.5],[1,0.5]];portConstraint=eastwest;top=0;left=0;right=0;bottom=0;" parent="YXRjS_rMBVFLt-Ks14Li-68" vertex="1">
          <mxGeometry y="120" width="370" height="30" as="geometry" />
        </mxCell>
        <mxCell id="YXRjS_rMBVFLt-Ks14Li-84" value="" style="shape=partialRectangle;overflow=hidden;connectable=0;fillColor=none;top=0;left=0;bottom=0;right=0;" parent="YXRjS_rMBVFLt-Ks14Li-83" vertex="1">
          <mxGeometry width="30" height="30" as="geometry">
            <mxRectangle width="30" height="30" as="alternateBounds" />
          </mxGeometry>
        </mxCell>
        <mxCell id="YXRjS_rMBVFLt-Ks14Li-85" value="court_phone VARCHAR(15)" style="shape=partialRectangle;overflow=hidden;connectable=0;fillColor=none;top=0;left=0;bottom=0;right=0;align=left;spacingLeft=6;" parent="YXRjS_rMBVFLt-Ks14Li-83" vertex="1">
          <mxGeometry x="30" width="340" height="30" as="geometry">
            <mxRectangle width="340" height="30" as="alternateBounds" />
          </mxGeometry>
        </mxCell>
        <mxCell id="1_GCppXKczDWo7uRgGot-67" value="" style="shape=partialRectangle;collapsible=0;dropTarget=0;pointerEvents=0;fillColor=none;points=[[0,0.5],[1,0.5]];portConstraint=eastwest;top=0;left=0;right=0;bottom=0;" vertex="1" parent="YXRjS_rMBVFLt-Ks14Li-68">
          <mxGeometry y="150" width="370" height="30" as="geometry" />
        </mxCell>
        <mxCell id="1_GCppXKczDWo7uRgGot-68" value="" style="shape=partialRectangle;overflow=hidden;connectable=0;fillColor=none;top=0;left=0;bottom=0;right=0;" vertex="1" parent="1_GCppXKczDWo7uRgGot-67">
          <mxGeometry width="30" height="30" as="geometry">
            <mxRectangle width="30" height="30" as="alternateBounds" />
          </mxGeometry>
        </mxCell>
        <mxCell id="1_GCppXKczDWo7uRgGot-69" value="court_address VARCHAR(255) NOT NULL" style="shape=partialRectangle;overflow=hidden;connectable=0;fillColor=none;top=0;left=0;bottom=0;right=0;align=left;spacingLeft=6;" vertex="1" parent="1_GCppXKczDWo7uRgGot-67">
          <mxGeometry x="30" width="340" height="30" as="geometry">
            <mxRectangle width="340" height="30" as="alternateBounds" />
          </mxGeometry>
        </mxCell>
        <mxCell id="1_GCppXKczDWo7uRgGot-70" value="" style="shape=partialRectangle;collapsible=0;dropTarget=0;pointerEvents=0;fillColor=none;points=[[0,0.5],[1,0.5]];portConstraint=eastwest;top=0;left=0;right=0;bottom=0;" vertex="1" parent="YXRjS_rMBVFLt-Ks14Li-68">
          <mxGeometry y="180" width="370" height="30" as="geometry" />
        </mxCell>
        <mxCell id="1_GCppXKczDWo7uRgGot-71" value="" style="shape=partialRectangle;overflow=hidden;connectable=0;fillColor=none;top=0;left=0;bottom=0;right=0;" vertex="1" parent="1_GCppXKczDWo7uRgGot-70">
          <mxGeometry width="30" height="30" as="geometry">
            <mxRectangle width="30" height="30" as="alternateBounds" />
          </mxGeometry>
        </mxCell>
        <mxCell id="1_GCppXKczDWo7uRgGot-72" value="location VARCHAR(255) NOT NULL" style="shape=partialRectangle;overflow=hidden;connectable=0;fillColor=none;top=0;left=0;bottom=0;right=0;align=left;spacingLeft=6;" vertex="1" parent="1_GCppXKczDWo7uRgGot-70">
          <mxGeometry x="30" width="340" height="30" as="geometry">
            <mxRectangle width="340" height="30" as="alternateBounds" />
          </mxGeometry>
        </mxCell>
        <mxCell id="1_GCppXKczDWo7uRgGot-73" value="" style="shape=partialRectangle;collapsible=0;dropTarget=0;pointerEvents=0;fillColor=none;points=[[0,0.5],[1,0.5]];portConstraint=eastwest;top=0;left=0;right=0;bottom=0;" vertex="1" parent="YXRjS_rMBVFLt-Ks14Li-68">
          <mxGeometry y="210" width="370" height="30" as="geometry" />
        </mxCell>
        <mxCell id="1_GCppXKczDWo7uRgGot-74" value="" style="shape=partialRectangle;overflow=hidden;connectable=0;fillColor=none;top=0;left=0;bottom=0;right=0;" vertex="1" parent="1_GCppXKczDWo7uRgGot-73">
          <mxGeometry width="30" height="30" as="geometry">
            <mxRectangle width="30" height="30" as="alternateBounds" />
          </mxGeometry>
        </mxCell>
        <mxCell id="1_GCppXKczDWo7uRgGot-75" value="court_type VARCHAR(255) NOT NULL" style="shape=partialRectangle;overflow=hidden;connectable=0;fillColor=none;top=0;left=0;bottom=0;right=0;align=left;spacingLeft=6;" vertex="1" parent="1_GCppXKczDWo7uRgGot-73">
          <mxGeometry x="30" width="340" height="30" as="geometry">
            <mxRectangle width="340" height="30" as="alternateBounds" />
          </mxGeometry>
        </mxCell>
        <mxCell id="1_GCppXKczDWo7uRgGot-76" value="" style="shape=partialRectangle;collapsible=0;dropTarget=0;pointerEvents=0;fillColor=none;points=[[0,0.5],[1,0.5]];portConstraint=eastwest;top=0;left=0;right=0;bottom=0;" vertex="1" parent="YXRjS_rMBVFLt-Ks14Li-68">
          <mxGeometry y="240" width="370" height="30" as="geometry" />
        </mxCell>
        <mxCell id="1_GCppXKczDWo7uRgGot-77" value="" style="shape=partialRectangle;overflow=hidden;connectable=0;fillColor=none;top=0;left=0;bottom=0;right=0;" vertex="1" parent="1_GCppXKczDWo7uRgGot-76">
          <mxGeometry width="30" height="30" as="geometry">
            <mxRectangle width="30" height="30" as="alternateBounds" />
          </mxGeometry>
        </mxCell>
        <mxCell id="1_GCppXKczDWo7uRgGot-78" value="created_by INT NOT NULL" style="shape=partialRectangle;overflow=hidden;connectable=0;fillColor=none;top=0;left=0;bottom=0;right=0;align=left;spacingLeft=6;" vertex="1" parent="1_GCppXKczDWo7uRgGot-76">
          <mxGeometry x="30" width="340" height="30" as="geometry">
            <mxRectangle width="340" height="30" as="alternateBounds" />
          </mxGeometry>
        </mxCell>
        <mxCell id="1_GCppXKczDWo7uRgGot-79" value="" style="shape=partialRectangle;collapsible=0;dropTarget=0;pointerEvents=0;fillColor=none;points=[[0,0.5],[1,0.5]];portConstraint=eastwest;top=0;left=0;right=0;bottom=0;" vertex="1" parent="YXRjS_rMBVFLt-Ks14Li-68">
          <mxGeometry y="270" width="370" height="30" as="geometry" />
        </mxCell>
        <mxCell id="1_GCppXKczDWo7uRgGot-80" value="" style="shape=partialRectangle;overflow=hidden;connectable=0;fillColor=none;top=0;left=0;bottom=0;right=0;" vertex="1" parent="1_GCppXKczDWo7uRgGot-79">
          <mxGeometry width="30" height="30" as="geometry">
            <mxRectangle width="30" height="30" as="alternateBounds" />
          </mxGeometry>
        </mxCell>
        <mxCell id="1_GCppXKczDWo7uRgGot-81" value="created_on DATETIME DEFAULT CURRENT_TIMESTAMP" style="shape=partialRectangle;overflow=hidden;connectable=0;fillColor=none;top=0;left=0;bottom=0;right=0;align=left;spacingLeft=6;" vertex="1" parent="1_GCppXKczDWo7uRgGot-79">
          <mxGeometry x="30" width="340" height="30" as="geometry">
            <mxRectangle width="340" height="30" as="alternateBounds" />
          </mxGeometry>
        </mxCell>
        <mxCell id="YXRjS_rMBVFLt-Ks14Li-179" value="Case Proceeding" style="shape=table;startSize=30;container=1;collapsible=1;childLayout=tableLayout;fixedRows=1;rowLines=0;fontStyle=1;align=center;resizeLast=1;" parent="1" vertex="1">
          <mxGeometry x="-780" y="750" width="390" height="270" as="geometry" />
        </mxCell>
        <mxCell id="YXRjS_rMBVFLt-Ks14Li-180" value="" style="shape=partialRectangle;collapsible=0;dropTarget=0;pointerEvents=0;fillColor=none;points=[[0,0.5],[1,0.5]];portConstraint=eastwest;top=0;left=0;right=0;bottom=1;" parent="YXRjS_rMBVFLt-Ks14Li-179" vertex="1">
          <mxGeometry y="30" width="390" height="30" as="geometry" />
        </mxCell>
        <mxCell id="YXRjS_rMBVFLt-Ks14Li-181" value="PK" style="shape=partialRectangle;overflow=hidden;connectable=0;fillColor=none;top=0;left=0;bottom=0;right=0;fontStyle=1;" parent="YXRjS_rMBVFLt-Ks14Li-180" vertex="1">
          <mxGeometry width="30" height="30" as="geometry">
            <mxRectangle width="30" height="30" as="alternateBounds" />
          </mxGeometry>
        </mxCell>
        <mxCell id="YXRjS_rMBVFLt-Ks14Li-182" value="document_id VARCHAR(30) NOT NULL UNIQUE" style="shape=partialRectangle;overflow=hidden;connectable=0;fillColor=none;top=0;left=0;bottom=0;right=0;align=left;spacingLeft=6;fontStyle=5;" parent="YXRjS_rMBVFLt-Ks14Li-180" vertex="1">
          <mxGeometry x="30" width="360" height="30" as="geometry">
            <mxRectangle width="360" height="30" as="alternateBounds" />
          </mxGeometry>
        </mxCell>
        <mxCell id="YXRjS_rMBVFLt-Ks14Li-183" value="" style="shape=partialRectangle;collapsible=0;dropTarget=0;pointerEvents=0;fillColor=none;points=[[0,0.5],[1,0.5]];portConstraint=eastwest;top=0;left=0;right=0;bottom=0;" parent="YXRjS_rMBVFLt-Ks14Li-179" vertex="1">
          <mxGeometry y="60" width="390" height="30" as="geometry" />
        </mxCell>
        <mxCell id="YXRjS_rMBVFLt-Ks14Li-184" value="FK1" style="shape=partialRectangle;overflow=hidden;connectable=0;fillColor=none;top=0;left=0;bottom=0;right=0;" parent="YXRjS_rMBVFLt-Ks14Li-183" vertex="1">
          <mxGeometry width="30" height="30" as="geometry">
            <mxRectangle width="30" height="30" as="alternateBounds" />
          </mxGeometry>
        </mxCell>
        <mxCell id="YXRjS_rMBVFLt-Ks14Li-185" value="document_name VARCHAR(255) NOT NULL" style="shape=partialRectangle;overflow=hidden;connectable=0;fillColor=none;top=0;left=0;bottom=0;right=0;align=left;spacingLeft=6;" parent="YXRjS_rMBVFLt-Ks14Li-183" vertex="1">
          <mxGeometry x="30" width="360" height="30" as="geometry">
            <mxRectangle width="360" height="30" as="alternateBounds" />
          </mxGeometry>
        </mxCell>
        <mxCell id="YXRjS_rMBVFLt-Ks14Li-186" value="" style="shape=partialRectangle;collapsible=0;dropTarget=0;pointerEvents=0;fillColor=none;points=[[0,0.5],[1,0.5]];portConstraint=eastwest;top=0;left=0;right=0;bottom=0;" parent="YXRjS_rMBVFLt-Ks14Li-179" vertex="1">
          <mxGeometry y="90" width="390" height="30" as="geometry" />
        </mxCell>
        <mxCell id="YXRjS_rMBVFLt-Ks14Li-187" value="" style="shape=partialRectangle;overflow=hidden;connectable=0;fillColor=none;top=0;left=0;bottom=0;right=0;" parent="YXRjS_rMBVFLt-Ks14Li-186" vertex="1">
          <mxGeometry width="30" height="30" as="geometry">
            <mxRectangle width="30" height="30" as="alternateBounds" />
          </mxGeometry>
        </mxCell>
        <mxCell id="YXRjS_rMBVFLt-Ks14Li-188" value="document_type VARCHAR(30) NOT NULL" style="shape=partialRectangle;overflow=hidden;connectable=0;fillColor=none;top=0;left=0;bottom=0;right=0;align=left;spacingLeft=6;" parent="YXRjS_rMBVFLt-Ks14Li-186" vertex="1">
          <mxGeometry x="30" width="360" height="30" as="geometry">
            <mxRectangle width="360" height="30" as="alternateBounds" />
          </mxGeometry>
        </mxCell>
        <mxCell id="YXRjS_rMBVFLt-Ks14Li-189" value="" style="shape=partialRectangle;collapsible=0;dropTarget=0;pointerEvents=0;fillColor=none;points=[[0,0.5],[1,0.5]];portConstraint=eastwest;top=0;left=0;right=0;bottom=0;" parent="YXRjS_rMBVFLt-Ks14Li-179" vertex="1">
          <mxGeometry y="120" width="390" height="30" as="geometry" />
        </mxCell>
        <mxCell id="YXRjS_rMBVFLt-Ks14Li-190" value="" style="shape=partialRectangle;overflow=hidden;connectable=0;fillColor=none;top=0;left=0;bottom=0;right=0;" parent="YXRjS_rMBVFLt-Ks14Li-189" vertex="1">
          <mxGeometry width="30" height="30" as="geometry">
            <mxRectangle width="30" height="30" as="alternateBounds" />
          </mxGeometry>
        </mxCell>
        <mxCell id="YXRjS_rMBVFLt-Ks14Li-191" value="filed_by INT NOT NULL" style="shape=partialRectangle;overflow=hidden;connectable=0;fillColor=none;top=0;left=0;bottom=0;right=0;align=left;spacingLeft=6;" parent="YXRjS_rMBVFLt-Ks14Li-189" vertex="1">
          <mxGeometry x="30" width="360" height="30" as="geometry">
            <mxRectangle width="360" height="30" as="alternateBounds" />
          </mxGeometry>
        </mxCell>
        <mxCell id="1_GCppXKczDWo7uRgGot-114" value="" style="shape=partialRectangle;collapsible=0;dropTarget=0;pointerEvents=0;fillColor=none;points=[[0,0.5],[1,0.5]];portConstraint=eastwest;top=0;left=0;right=0;bottom=0;" vertex="1" parent="YXRjS_rMBVFLt-Ks14Li-179">
          <mxGeometry y="150" width="390" height="30" as="geometry" />
        </mxCell>
        <mxCell id="1_GCppXKczDWo7uRgGot-115" value="" style="shape=partialRectangle;overflow=hidden;connectable=0;fillColor=none;top=0;left=0;bottom=0;right=0;" vertex="1" parent="1_GCppXKczDWo7uRgGot-114">
          <mxGeometry width="30" height="30" as="geometry">
            <mxRectangle width="30" height="30" as="alternateBounds" />
          </mxGeometry>
        </mxCell>
        <mxCell id="1_GCppXKczDWo7uRgGot-116" value="filed_as VARCHAR(255) NOT NULL" style="shape=partialRectangle;overflow=hidden;connectable=0;fillColor=none;top=0;left=0;bottom=0;right=0;align=left;spacingLeft=6;" vertex="1" parent="1_GCppXKczDWo7uRgGot-114">
          <mxGeometry x="30" width="360" height="30" as="geometry">
            <mxRectangle width="360" height="30" as="alternateBounds" />
          </mxGeometry>
        </mxCell>
        <mxCell id="1_GCppXKczDWo7uRgGot-117" value="" style="shape=partialRectangle;collapsible=0;dropTarget=0;pointerEvents=0;fillColor=none;points=[[0,0.5],[1,0.5]];portConstraint=eastwest;top=0;left=0;right=0;bottom=0;" vertex="1" parent="YXRjS_rMBVFLt-Ks14Li-179">
          <mxGeometry y="180" width="390" height="30" as="geometry" />
        </mxCell>
        <mxCell id="1_GCppXKczDWo7uRgGot-118" value="" style="shape=partialRectangle;overflow=hidden;connectable=0;fillColor=none;top=0;left=0;bottom=0;right=0;" vertex="1" parent="1_GCppXKczDWo7uRgGot-117">
          <mxGeometry width="30" height="30" as="geometry">
            <mxRectangle width="30" height="30" as="alternateBounds" />
          </mxGeometry>
        </mxCell>
        <mxCell id="1_GCppXKczDWo7uRgGot-119" value="filed_on DATETIME DEFAULT CURRENT_TIMESTAMP" style="shape=partialRectangle;overflow=hidden;connectable=0;fillColor=none;top=0;left=0;bottom=0;right=0;align=left;spacingLeft=6;" vertex="1" parent="1_GCppXKczDWo7uRgGot-117">
          <mxGeometry x="30" width="360" height="30" as="geometry">
            <mxRectangle width="360" height="30" as="alternateBounds" />
          </mxGeometry>
        </mxCell>
        <mxCell id="1_GCppXKczDWo7uRgGot-120" value="" style="shape=partialRectangle;collapsible=0;dropTarget=0;pointerEvents=0;fillColor=none;points=[[0,0.5],[1,0.5]];portConstraint=eastwest;top=0;left=0;right=0;bottom=0;" vertex="1" parent="YXRjS_rMBVFLt-Ks14Li-179">
          <mxGeometry y="210" width="390" height="30" as="geometry" />
        </mxCell>
        <mxCell id="1_GCppXKczDWo7uRgGot-121" value="" style="shape=partialRectangle;overflow=hidden;connectable=0;fillColor=none;top=0;left=0;bottom=0;right=0;" vertex="1" parent="1_GCppXKczDWo7uRgGot-120">
          <mxGeometry width="30" height="30" as="geometry">
            <mxRectangle width="30" height="30" as="alternateBounds" />
          </mxGeometry>
        </mxCell>
        <mxCell id="1_GCppXKczDWo7uRgGot-122" value="confidentiality VARCHAR(30) NOT NULL" style="shape=partialRectangle;overflow=hidden;connectable=0;fillColor=none;top=0;left=0;bottom=0;right=0;align=left;spacingLeft=6;" vertex="1" parent="1_GCppXKczDWo7uRgGot-120">
          <mxGeometry x="30" width="360" height="30" as="geometry">
            <mxRectangle width="360" height="30" as="alternateBounds" />
          </mxGeometry>
        </mxCell>
        <mxCell id="1_GCppXKczDWo7uRgGot-123" value="" style="shape=partialRectangle;collapsible=0;dropTarget=0;pointerEvents=0;fillColor=none;points=[[0,0.5],[1,0.5]];portConstraint=eastwest;top=0;left=0;right=0;bottom=0;" vertex="1" parent="YXRjS_rMBVFLt-Ks14Li-179">
          <mxGeometry y="240" width="390" height="30" as="geometry" />
        </mxCell>
        <mxCell id="1_GCppXKczDWo7uRgGot-124" value="" style="shape=partialRectangle;overflow=hidden;connectable=0;fillColor=none;top=0;left=0;bottom=0;right=0;" vertex="1" parent="1_GCppXKczDWo7uRgGot-123">
          <mxGeometry width="30" height="30" as="geometry">
            <mxRectangle width="30" height="30" as="alternateBounds" />
          </mxGeometry>
        </mxCell>
        <mxCell id="1_GCppXKczDWo7uRgGot-125" value="case INT NOT NULL" style="shape=partialRectangle;overflow=hidden;connectable=0;fillColor=none;top=0;left=0;bottom=0;right=0;align=left;spacingLeft=6;" vertex="1" parent="1_GCppXKczDWo7uRgGot-123">
          <mxGeometry x="30" width="360" height="30" as="geometry">
            <mxRectangle width="360" height="30" as="alternateBounds" />
          </mxGeometry>
        </mxCell>
        <mxCell id="1_GCppXKczDWo7uRgGot-82" value="Case" style="shape=table;startSize=30;container=1;collapsible=1;childLayout=tableLayout;fixedRows=1;rowLines=0;fontStyle=1;align=center;resizeLast=1;" vertex="1" parent="1">
          <mxGeometry x="350" y="20" width="250" height="300" as="geometry" />
        </mxCell>
        <mxCell id="1_GCppXKczDWo7uRgGot-83" value="" style="shape=partialRectangle;collapsible=0;dropTarget=0;pointerEvents=0;fillColor=none;points=[[0,0.5],[1,0.5]];portConstraint=eastwest;top=0;left=0;right=0;bottom=1;" vertex="1" parent="1_GCppXKczDWo7uRgGot-82">
          <mxGeometry y="30" width="250" height="30" as="geometry" />
        </mxCell>
        <mxCell id="1_GCppXKczDWo7uRgGot-84" value="PK" style="shape=partialRectangle;overflow=hidden;connectable=0;fillColor=none;top=0;left=0;bottom=0;right=0;fontStyle=1;" vertex="1" parent="1_GCppXKczDWo7uRgGot-83">
          <mxGeometry width="30" height="30" as="geometry">
            <mxRectangle width="30" height="30" as="alternateBounds" />
          </mxGeometry>
        </mxCell>
        <mxCell id="1_GCppXKczDWo7uRgGot-85" value="case_id varchar(30) NOT NULL" style="shape=partialRectangle;overflow=hidden;connectable=0;fillColor=none;top=0;left=0;bottom=0;right=0;align=left;spacingLeft=6;fontStyle=5;" vertex="1" parent="1_GCppXKczDWo7uRgGot-83">
          <mxGeometry x="30" width="220" height="30" as="geometry">
            <mxRectangle width="220" height="30" as="alternateBounds" />
          </mxGeometry>
        </mxCell>
        <mxCell id="1_GCppXKczDWo7uRgGot-86" value="" style="shape=partialRectangle;collapsible=0;dropTarget=0;pointerEvents=0;fillColor=none;points=[[0,0.5],[1,0.5]];portConstraint=eastwest;top=0;left=0;right=0;bottom=0;" vertex="1" parent="1_GCppXKczDWo7uRgGot-82">
          <mxGeometry y="60" width="250" height="30" as="geometry" />
        </mxCell>
        <mxCell id="1_GCppXKczDWo7uRgGot-87" value="" style="shape=partialRectangle;overflow=hidden;connectable=0;fillColor=none;top=0;left=0;bottom=0;right=0;" vertex="1" parent="1_GCppXKczDWo7uRgGot-86">
          <mxGeometry width="30" height="30" as="geometry">
            <mxRectangle width="30" height="30" as="alternateBounds" />
          </mxGeometry>
        </mxCell>
        <mxCell id="1_GCppXKczDWo7uRgGot-88" value="case_type VARCHAR(30) NOT NULL" style="shape=partialRectangle;overflow=hidden;connectable=0;fillColor=none;top=0;left=0;bottom=0;right=0;align=left;spacingLeft=6;" vertex="1" parent="1_GCppXKczDWo7uRgGot-86">
          <mxGeometry x="30" width="220" height="30" as="geometry">
            <mxRectangle width="220" height="30" as="alternateBounds" />
          </mxGeometry>
        </mxCell>
        <mxCell id="1_GCppXKczDWo7uRgGot-89" value="" style="shape=partialRectangle;collapsible=0;dropTarget=0;pointerEvents=0;fillColor=none;points=[[0,0.5],[1,0.5]];portConstraint=eastwest;top=0;left=0;right=0;bottom=0;" vertex="1" parent="1_GCppXKczDWo7uRgGot-82">
          <mxGeometry y="90" width="250" height="30" as="geometry" />
        </mxCell>
        <mxCell id="1_GCppXKczDWo7uRgGot-90" value="" style="shape=partialRectangle;overflow=hidden;connectable=0;fillColor=none;top=0;left=0;bottom=0;right=0;" vertex="1" parent="1_GCppXKczDWo7uRgGot-89">
          <mxGeometry width="30" height="30" as="geometry">
            <mxRectangle width="30" height="30" as="alternateBounds" />
          </mxGeometry>
        </mxCell>
        <mxCell id="1_GCppXKczDWo7uRgGot-91" value="case_status VARCHAR(30) NOT NULL" style="shape=partialRectangle;overflow=hidden;connectable=0;fillColor=none;top=0;left=0;bottom=0;right=0;align=left;spacingLeft=6;" vertex="1" parent="1_GCppXKczDWo7uRgGot-89">
          <mxGeometry x="30" width="220" height="30" as="geometry">
            <mxRectangle width="220" height="30" as="alternateBounds" />
          </mxGeometry>
        </mxCell>
        <mxCell id="1_GCppXKczDWo7uRgGot-92" value="" style="shape=partialRectangle;collapsible=0;dropTarget=0;pointerEvents=0;fillColor=none;points=[[0,0.5],[1,0.5]];portConstraint=eastwest;top=0;left=0;right=0;bottom=0;" vertex="1" parent="1_GCppXKczDWo7uRgGot-82">
          <mxGeometry y="120" width="250" height="30" as="geometry" />
        </mxCell>
        <mxCell id="1_GCppXKczDWo7uRgGot-93" value="" style="shape=partialRectangle;overflow=hidden;connectable=0;fillColor=none;top=0;left=0;bottom=0;right=0;" vertex="1" parent="1_GCppXKczDWo7uRgGot-92">
          <mxGeometry width="30" height="30" as="geometry">
            <mxRectangle width="30" height="30" as="alternateBounds" />
          </mxGeometry>
        </mxCell>
        <mxCell id="1_GCppXKczDWo7uRgGot-94" value="case_name VARCHAR(30) NOT NULL" style="shape=partialRectangle;overflow=hidden;connectable=0;fillColor=none;top=0;left=0;bottom=0;right=0;align=left;spacingLeft=6;" vertex="1" parent="1_GCppXKczDWo7uRgGot-92">
          <mxGeometry x="30" width="220" height="30" as="geometry">
            <mxRectangle width="220" height="30" as="alternateBounds" />
          </mxGeometry>
        </mxCell>
        <mxCell id="1_GCppXKczDWo7uRgGot-95" value="" style="shape=partialRectangle;collapsible=0;dropTarget=0;pointerEvents=0;fillColor=none;points=[[0,0.5],[1,0.5]];portConstraint=eastwest;top=0;left=0;right=0;bottom=0;" vertex="1" parent="1_GCppXKczDWo7uRgGot-82">
          <mxGeometry y="150" width="250" height="30" as="geometry" />
        </mxCell>
        <mxCell id="1_GCppXKczDWo7uRgGot-96" value="" style="shape=partialRectangle;overflow=hidden;connectable=0;fillColor=none;top=0;left=0;bottom=0;right=0;" vertex="1" parent="1_GCppXKczDWo7uRgGot-95">
          <mxGeometry width="30" height="30" as="geometry">
            <mxRectangle width="30" height="30" as="alternateBounds" />
          </mxGeometry>
        </mxCell>
        <mxCell id="1_GCppXKczDWo7uRgGot-97" value="case_description TEXT" style="shape=partialRectangle;overflow=hidden;connectable=0;fillColor=none;top=0;left=0;bottom=0;right=0;align=left;spacingLeft=6;" vertex="1" parent="1_GCppXKczDWo7uRgGot-95">
          <mxGeometry x="30" width="220" height="30" as="geometry">
            <mxRectangle width="220" height="30" as="alternateBounds" />
          </mxGeometry>
        </mxCell>
        <mxCell id="1_GCppXKczDWo7uRgGot-98" value="" style="shape=partialRectangle;collapsible=0;dropTarget=0;pointerEvents=0;fillColor=none;points=[[0,0.5],[1,0.5]];portConstraint=eastwest;top=0;left=0;right=0;bottom=0;" vertex="1" parent="1_GCppXKczDWo7uRgGot-82">
          <mxGeometry y="180" width="250" height="30" as="geometry" />
        </mxCell>
        <mxCell id="1_GCppXKczDWo7uRgGot-99" value="" style="shape=partialRectangle;overflow=hidden;connectable=0;fillColor=none;top=0;left=0;bottom=0;right=0;" vertex="1" parent="1_GCppXKczDWo7uRgGot-98">
          <mxGeometry width="30" height="30" as="geometry">
            <mxRectangle width="30" height="30" as="alternateBounds" />
          </mxGeometry>
        </mxCell>
        <mxCell id="1_GCppXKczDWo7uRgGot-100" value="phone_number VARCHAR(15)" style="shape=partialRectangle;overflow=hidden;connectable=0;fillColor=none;top=0;left=0;bottom=0;right=0;align=left;spacingLeft=6;" vertex="1" parent="1_GCppXKczDWo7uRgGot-98">
          <mxGeometry x="30" width="220" height="30" as="geometry">
            <mxRectangle width="220" height="30" as="alternateBounds" />
          </mxGeometry>
        </mxCell>
        <mxCell id="1_GCppXKczDWo7uRgGot-101" value="" style="shape=partialRectangle;collapsible=0;dropTarget=0;pointerEvents=0;fillColor=none;points=[[0,0.5],[1,0.5]];portConstraint=eastwest;top=0;left=0;right=0;bottom=0;" vertex="1" parent="1_GCppXKczDWo7uRgGot-82">
          <mxGeometry y="210" width="250" height="30" as="geometry" />
        </mxCell>
        <mxCell id="1_GCppXKczDWo7uRgGot-102" value="" style="shape=partialRectangle;overflow=hidden;connectable=0;fillColor=none;top=0;left=0;bottom=0;right=0;" vertex="1" parent="1_GCppXKczDWo7uRgGot-101">
          <mxGeometry width="30" height="30" as="geometry">
            <mxRectangle width="30" height="30" as="alternateBounds" />
          </mxGeometry>
        </mxCell>
        <mxCell id="1_GCppXKczDWo7uRgGot-103" value="relief_sought TEXT" style="shape=partialRectangle;overflow=hidden;connectable=0;fillColor=none;top=0;left=0;bottom=0;right=0;align=left;spacingLeft=6;" vertex="1" parent="1_GCppXKczDWo7uRgGot-101">
          <mxGeometry x="30" width="220" height="30" as="geometry">
            <mxRectangle width="220" height="30" as="alternateBounds" />
          </mxGeometry>
        </mxCell>
        <mxCell id="1_GCppXKczDWo7uRgGot-104" value="" style="shape=partialRectangle;collapsible=0;dropTarget=0;pointerEvents=0;fillColor=none;points=[[0,0.5],[1,0.5]];portConstraint=eastwest;top=0;left=0;right=0;bottom=0;" vertex="1" parent="1_GCppXKczDWo7uRgGot-82">
          <mxGeometry y="240" width="250" height="30" as="geometry" />
        </mxCell>
        <mxCell id="1_GCppXKczDWo7uRgGot-105" value="" style="shape=partialRectangle;overflow=hidden;connectable=0;fillColor=none;top=0;left=0;bottom=0;right=0;" vertex="1" parent="1_GCppXKczDWo7uRgGot-104">
          <mxGeometry width="30" height="30" as="geometry">
            <mxRectangle width="30" height="30" as="alternateBounds" />
          </mxGeometry>
        </mxCell>
        <mxCell id="1_GCppXKczDWo7uRgGot-106" value="decision TEXT" style="shape=partialRectangle;overflow=hidden;connectable=0;fillColor=none;top=0;left=0;bottom=0;right=0;align=left;spacingLeft=6;" vertex="1" parent="1_GCppXKczDWo7uRgGot-104">
          <mxGeometry x="30" width="220" height="30" as="geometry">
            <mxRectangle width="220" height="30" as="alternateBounds" />
          </mxGeometry>
        </mxCell>
        <mxCell id="1_GCppXKczDWo7uRgGot-107" value="" style="shape=partialRectangle;collapsible=0;dropTarget=0;pointerEvents=0;fillColor=none;points=[[0,0.5],[1,0.5]];portConstraint=eastwest;top=0;left=0;right=0;bottom=0;" vertex="1" parent="1_GCppXKczDWo7uRgGot-82">
          <mxGeometry y="270" width="250" height="30" as="geometry" />
        </mxCell>
        <mxCell id="1_GCppXKczDWo7uRgGot-108" value="" style="shape=partialRectangle;overflow=hidden;connectable=0;fillColor=none;top=0;left=0;bottom=0;right=0;" vertex="1" parent="1_GCppXKczDWo7uRgGot-107">
          <mxGeometry width="30" height="30" as="geometry">
            <mxRectangle width="30" height="30" as="alternateBounds" />
          </mxGeometry>
        </mxCell>
        <mxCell id="1_GCppXKczDWo7uRgGot-109" value="date_filed DATE NOT NULL" style="shape=partialRectangle;overflow=hidden;connectable=0;fillColor=none;top=0;left=0;bottom=0;right=0;align=left;spacingLeft=6;" vertex="1" parent="1_GCppXKczDWo7uRgGot-107">
          <mxGeometry x="30" width="220" height="30" as="geometry">
            <mxRectangle width="220" height="30" as="alternateBounds" />
          </mxGeometry>
        </mxCell>
        <mxCell id="1_GCppXKczDWo7uRgGot-177" value="Notification" style="shape=table;startSize=30;container=1;collapsible=1;childLayout=tableLayout;fixedRows=1;rowLines=0;fontStyle=1;align=center;resizeLast=1;" vertex="1" parent="1">
          <mxGeometry x="100" y="1920" width="420" height="280" as="geometry" />
        </mxCell>
        <mxCell id="1_GCppXKczDWo7uRgGot-178" value="" style="shape=partialRectangle;collapsible=0;dropTarget=0;pointerEvents=0;fillColor=none;points=[[0,0.5],[1,0.5]];portConstraint=eastwest;top=0;left=0;right=0;bottom=1;" vertex="1" parent="1_GCppXKczDWo7uRgGot-177">
          <mxGeometry y="30" width="420" height="30" as="geometry" />
        </mxCell>
        <mxCell id="1_GCppXKczDWo7uRgGot-179" value="PK" style="shape=partialRectangle;overflow=hidden;connectable=0;fillColor=none;top=0;left=0;bottom=0;right=0;fontStyle=1;" vertex="1" parent="1_GCppXKczDWo7uRgGot-178">
          <mxGeometry width="30" height="30" as="geometry">
            <mxRectangle width="30" height="30" as="alternateBounds" />
          </mxGeometry>
        </mxCell>
        <mxCell id="1_GCppXKczDWo7uRgGot-180" value="notification_id int NOT NULL " style="shape=partialRectangle;overflow=hidden;connectable=0;fillColor=none;top=0;left=0;bottom=0;right=0;align=left;spacingLeft=6;fontStyle=5;" vertex="1" parent="1_GCppXKczDWo7uRgGot-178">
          <mxGeometry x="30" width="390" height="30" as="geometry">
            <mxRectangle width="390" height="30" as="alternateBounds" />
          </mxGeometry>
        </mxCell>
        <mxCell id="1_GCppXKczDWo7uRgGot-181" value="" style="shape=partialRectangle;collapsible=0;dropTarget=0;pointerEvents=0;fillColor=none;points=[[0,0.5],[1,0.5]];portConstraint=eastwest;top=0;left=0;right=0;bottom=0;" vertex="1" parent="1_GCppXKczDWo7uRgGot-177">
          <mxGeometry y="60" width="420" height="30" as="geometry" />
        </mxCell>
        <mxCell id="1_GCppXKczDWo7uRgGot-182" value="" style="shape=partialRectangle;overflow=hidden;connectable=0;fillColor=none;top=0;left=0;bottom=0;right=0;" vertex="1" parent="1_GCppXKczDWo7uRgGot-181">
          <mxGeometry width="30" height="30" as="geometry">
            <mxRectangle width="30" height="30" as="alternateBounds" />
          </mxGeometry>
        </mxCell>
        <mxCell id="1_GCppXKczDWo7uRgGot-183" value="notification_type VARCHAR(50) NOT NULL" style="shape=partialRectangle;overflow=hidden;connectable=0;fillColor=none;top=0;left=0;bottom=0;right=0;align=left;spacingLeft=6;" vertex="1" parent="1_GCppXKczDWo7uRgGot-181">
          <mxGeometry x="30" width="390" height="30" as="geometry">
            <mxRectangle width="390" height="30" as="alternateBounds" />
          </mxGeometry>
        </mxCell>
        <mxCell id="1_GCppXKczDWo7uRgGot-184" value="" style="shape=partialRectangle;collapsible=0;dropTarget=0;pointerEvents=0;fillColor=none;points=[[0,0.5],[1,0.5]];portConstraint=eastwest;top=0;left=0;right=0;bottom=0;" vertex="1" parent="1_GCppXKczDWo7uRgGot-177">
          <mxGeometry y="90" width="420" height="30" as="geometry" />
        </mxCell>
        <mxCell id="1_GCppXKczDWo7uRgGot-185" value="" style="shape=partialRectangle;overflow=hidden;connectable=0;fillColor=none;top=0;left=0;bottom=0;right=0;" vertex="1" parent="1_GCppXKczDWo7uRgGot-184">
          <mxGeometry width="30" height="30" as="geometry">
            <mxRectangle width="30" height="30" as="alternateBounds" />
          </mxGeometry>
        </mxCell>
        <mxCell id="1_GCppXKczDWo7uRgGot-186" value="sender INT NOT NULL" style="shape=partialRectangle;overflow=hidden;connectable=0;fillColor=none;top=0;left=0;bottom=0;right=0;align=left;spacingLeft=6;" vertex="1" parent="1_GCppXKczDWo7uRgGot-184">
          <mxGeometry x="30" width="390" height="30" as="geometry">
            <mxRectangle width="390" height="30" as="alternateBounds" />
          </mxGeometry>
        </mxCell>
        <mxCell id="1_GCppXKczDWo7uRgGot-187" value="" style="shape=partialRectangle;collapsible=0;dropTarget=0;pointerEvents=0;fillColor=none;points=[[0,0.5],[1,0.5]];portConstraint=eastwest;top=0;left=0;right=0;bottom=0;" vertex="1" parent="1_GCppXKczDWo7uRgGot-177">
          <mxGeometry y="120" width="420" height="30" as="geometry" />
        </mxCell>
        <mxCell id="1_GCppXKczDWo7uRgGot-188" value="" style="shape=partialRectangle;overflow=hidden;connectable=0;fillColor=none;top=0;left=0;bottom=0;right=0;" vertex="1" parent="1_GCppXKczDWo7uRgGot-187">
          <mxGeometry width="30" height="30" as="geometry">
            <mxRectangle width="30" height="30" as="alternateBounds" />
          </mxGeometry>
        </mxCell>
        <mxCell id="1_GCppXKczDWo7uRgGot-189" value="receiver INT NOT NULL" style="shape=partialRectangle;overflow=hidden;connectable=0;fillColor=none;top=0;left=0;bottom=0;right=0;align=left;spacingLeft=6;" vertex="1" parent="1_GCppXKczDWo7uRgGot-187">
          <mxGeometry x="30" width="390" height="30" as="geometry">
            <mxRectangle width="390" height="30" as="alternateBounds" />
          </mxGeometry>
        </mxCell>
        <mxCell id="1_GCppXKczDWo7uRgGot-190" value="" style="shape=partialRectangle;collapsible=0;dropTarget=0;pointerEvents=0;fillColor=none;points=[[0,0.5],[1,0.5]];portConstraint=eastwest;top=0;left=0;right=0;bottom=0;" vertex="1" parent="1_GCppXKczDWo7uRgGot-177">
          <mxGeometry y="150" width="420" height="30" as="geometry" />
        </mxCell>
        <mxCell id="1_GCppXKczDWo7uRgGot-191" value="" style="shape=partialRectangle;overflow=hidden;connectable=0;fillColor=none;top=0;left=0;bottom=0;right=0;" vertex="1" parent="1_GCppXKczDWo7uRgGot-190">
          <mxGeometry width="30" height="30" as="geometry">
            <mxRectangle width="30" height="30" as="alternateBounds" />
          </mxGeometry>
        </mxCell>
        <mxCell id="1_GCppXKczDWo7uRgGot-192" value="subject VARCHAR(255) NOT NULL" style="shape=partialRectangle;overflow=hidden;connectable=0;fillColor=none;top=0;left=0;bottom=0;right=0;align=left;spacingLeft=6;" vertex="1" parent="1_GCppXKczDWo7uRgGot-190">
          <mxGeometry x="30" width="390" height="30" as="geometry">
            <mxRectangle width="390" height="30" as="alternateBounds" />
          </mxGeometry>
        </mxCell>
        <mxCell id="1_GCppXKczDWo7uRgGot-193" value="" style="shape=partialRectangle;collapsible=0;dropTarget=0;pointerEvents=0;fillColor=none;points=[[0,0.5],[1,0.5]];portConstraint=eastwest;top=0;left=0;right=0;bottom=0;" vertex="1" parent="1_GCppXKczDWo7uRgGot-177">
          <mxGeometry y="180" width="420" height="30" as="geometry" />
        </mxCell>
        <mxCell id="1_GCppXKczDWo7uRgGot-194" value="" style="shape=partialRectangle;overflow=hidden;connectable=0;fillColor=none;top=0;left=0;bottom=0;right=0;" vertex="1" parent="1_GCppXKczDWo7uRgGot-193">
          <mxGeometry width="30" height="30" as="geometry">
            <mxRectangle width="30" height="30" as="alternateBounds" />
          </mxGeometry>
        </mxCell>
        <mxCell id="1_GCppXKczDWo7uRgGot-195" value="message TEXT NOT NULL" style="shape=partialRectangle;overflow=hidden;connectable=0;fillColor=none;top=0;left=0;bottom=0;right=0;align=left;spacingLeft=6;" vertex="1" parent="1_GCppXKczDWo7uRgGot-193">
          <mxGeometry x="30" width="390" height="30" as="geometry">
            <mxRectangle width="390" height="30" as="alternateBounds" />
          </mxGeometry>
        </mxCell>
        <mxCell id="1_GCppXKczDWo7uRgGot-196" value="" style="shape=partialRectangle;collapsible=0;dropTarget=0;pointerEvents=0;fillColor=none;points=[[0,0.5],[1,0.5]];portConstraint=eastwest;top=0;left=0;right=0;bottom=0;" vertex="1" parent="1_GCppXKczDWo7uRgGot-177">
          <mxGeometry y="210" width="420" height="30" as="geometry" />
        </mxCell>
        <mxCell id="1_GCppXKczDWo7uRgGot-197" value="" style="shape=partialRectangle;overflow=hidden;connectable=0;fillColor=none;top=0;left=0;bottom=0;right=0;" vertex="1" parent="1_GCppXKczDWo7uRgGot-196">
          <mxGeometry width="30" height="30" as="geometry">
            <mxRectangle width="30" height="30" as="alternateBounds" />
          </mxGeometry>
        </mxCell>
        <mxCell id="1_GCppXKczDWo7uRgGot-198" value="is_read BOOLEAN DEFAULT FALSE" style="shape=partialRectangle;overflow=hidden;connectable=0;fillColor=none;top=0;left=0;bottom=0;right=0;align=left;spacingLeft=6;" vertex="1" parent="1_GCppXKczDWo7uRgGot-196">
          <mxGeometry x="30" width="390" height="30" as="geometry">
            <mxRectangle width="390" height="30" as="alternateBounds" />
          </mxGeometry>
        </mxCell>
        <mxCell id="1_GCppXKczDWo7uRgGot-199" value="" style="shape=partialRectangle;collapsible=0;dropTarget=0;pointerEvents=0;fillColor=none;points=[[0,0.5],[1,0.5]];portConstraint=eastwest;top=0;left=0;right=0;bottom=0;" vertex="1" parent="1_GCppXKczDWo7uRgGot-177">
          <mxGeometry y="240" width="420" height="30" as="geometry" />
        </mxCell>
        <mxCell id="1_GCppXKczDWo7uRgGot-200" value="" style="shape=partialRectangle;overflow=hidden;connectable=0;fillColor=none;top=0;left=0;bottom=0;right=0;" vertex="1" parent="1_GCppXKczDWo7uRgGot-199">
          <mxGeometry width="30" height="30" as="geometry">
            <mxRectangle width="30" height="30" as="alternateBounds" />
          </mxGeometry>
        </mxCell>
        <mxCell id="1_GCppXKczDWo7uRgGot-201" value="created_on DATETIME DEFAULT CURRENT_TIMESTAMP" style="shape=partialRectangle;overflow=hidden;connectable=0;fillColor=none;top=0;left=0;bottom=0;right=0;align=left;spacingLeft=6;" vertex="1" parent="1_GCppXKczDWo7uRgGot-199">
          <mxGeometry x="30" width="390" height="30" as="geometry">
            <mxRectangle width="390" height="30" as="alternateBounds" />
          </mxGeometry>
        </mxCell>
        <mxCell id="1_GCppXKczDWo7uRgGot-214" value="" style="edgeStyle=entityRelationEdgeStyle;fontSize=12;html=1;endArrow=ERoneToMany;rounded=0;exitX=0;exitY=0.5;exitDx=0;exitDy=0;" edge="1" parent="1" source="YXRjS_rMBVFLt-Ks14Li-65" target="1_GCppXKczDWo7uRgGot-70">
          <mxGeometry width="100" height="100" relative="1" as="geometry">
            <mxPoint x="540" y="520" as="sourcePoint" />
            <mxPoint x="640" y="420" as="targetPoint" />
            <Array as="points">
              <mxPoint x="750" y="320" />
            </Array>
          </mxGeometry>
        </mxCell>
        <mxCell id="1_GCppXKczDWo7uRgGot-215" value="" style="edgeStyle=entityRelationEdgeStyle;fontSize=12;html=1;endArrow=ERmany;startArrow=ERmany;rounded=0;exitX=1.032;exitY=0;exitDx=0;exitDy=0;exitPerimeter=0;" edge="1" parent="1" source="YXRjS_rMBVFLt-Ks14Li-65" target="1_GCppXKczDWo7uRgGot-107">
          <mxGeometry width="100" height="100" relative="1" as="geometry">
            <mxPoint x="540" y="520" as="sourcePoint" />
            <mxPoint x="740" y="420" as="targetPoint" />
          </mxGeometry>
        </mxCell>
        <mxCell id="1_GCppXKczDWo7uRgGot-216" value="" style="edgeStyle=entityRelationEdgeStyle;fontSize=12;html=1;endArrow=ERoneToMany;rounded=0;exitX=1.024;exitY=-0.067;exitDx=0;exitDy=0;entryX=0;entryY=0.5;entryDx=0;entryDy=0;exitPerimeter=0;" edge="1" parent="1" source="1_GCppXKczDWo7uRgGot-52" target="1_GCppXKczDWo7uRgGot-156">
          <mxGeometry width="100" height="100" relative="1" as="geometry">
            <mxPoint x="330" y="855" as="sourcePoint" />
            <mxPoint x="-330" y="415" as="targetPoint" />
            <Array as="points">
              <mxPoint x="760" y="330" />
            </Array>
          </mxGeometry>
        </mxCell>
        <mxCell id="1_GCppXKczDWo7uRgGot-217" value="" style="edgeStyle=entityRelationEdgeStyle;fontSize=12;html=1;endArrow=ERoneToMany;rounded=0;entryX=1;entryY=0.5;entryDx=0;entryDy=0;" edge="1" parent="1" source="1_GCppXKczDWo7uRgGot-58" target="1_GCppXKczDWo7uRgGot-181">
          <mxGeometry width="100" height="100" relative="1" as="geometry">
            <mxPoint x="590" y="950" as="sourcePoint" />
            <mxPoint x="1310" y="625" as="targetPoint" />
            <Array as="points">
              <mxPoint x="770" y="340" />
              <mxPoint x="600" y="1470" />
              <mxPoint x="600" y="1460" />
            </Array>
          </mxGeometry>
        </mxCell>
        <mxCell id="1_GCppXKczDWo7uRgGot-218" value="" style="edgeStyle=entityRelationEdgeStyle;fontSize=12;html=1;endArrow=ERoneToMany;rounded=0;exitX=1;exitY=-0.2;exitDx=0;exitDy=0;exitPerimeter=0;entryX=0;entryY=0.5;entryDx=0;entryDy=0;" edge="1" parent="1" source="YXRjS_rMBVFLt-Ks14Li-83" target="1_GCppXKczDWo7uRgGot-95">
          <mxGeometry width="100" height="100" relative="1" as="geometry">
            <mxPoint x="350" y="855" as="sourcePoint" />
            <mxPoint x="-330" y="415" as="targetPoint" />
            <Array as="points">
              <mxPoint x="760" y="330" />
            </Array>
          </mxGeometry>
        </mxCell>
        <mxCell id="1_GCppXKczDWo7uRgGot-219" value="" style="edgeStyle=entityRelationEdgeStyle;fontSize=12;html=1;endArrow=ERoneToMany;rounded=0;entryX=1;entryY=0.5;entryDx=0;entryDy=0;exitX=1;exitY=0.5;exitDx=0;exitDy=0;" edge="1" parent="1" source="1_GCppXKczDWo7uRgGot-76" target="1_GCppXKczDWo7uRgGot-120">
          <mxGeometry width="100" height="100" relative="1" as="geometry">
            <mxPoint x="-340" y="465" as="sourcePoint" />
            <mxPoint x="360" y="195" as="targetPoint" />
            <Array as="points">
              <mxPoint x="770" y="340" />
              <mxPoint x="350" y="490" />
            </Array>
          </mxGeometry>
        </mxCell>
        <mxCell id="1_GCppXKczDWo7uRgGot-220" value="" style="edgeStyle=entityRelationEdgeStyle;fontSize=12;html=1;endArrow=ERoneToMany;rounded=0;exitX=1;exitY=-0.067;exitDx=0;exitDy=0;exitPerimeter=0;" edge="1" parent="1" source="YXRjS_rMBVFLt-Ks14Li-189" target="YXRjS_rMBVFLt-Ks14Li-28">
          <mxGeometry width="100" height="100" relative="1" as="geometry">
            <mxPoint x="-360" y="415" as="sourcePoint" />
            <mxPoint x="-380" y="985" as="targetPoint" />
            <Array as="points">
              <mxPoint x="780" y="350" />
              <mxPoint x="360" y="500" />
            </Array>
          </mxGeometry>
        </mxCell>
        <mxCell id="1_GCppXKczDWo7uRgGot-221" value="" style="edgeStyle=entityRelationEdgeStyle;fontSize=12;html=1;endArrow=ERoneToMany;rounded=0;exitX=1;exitY=0.5;exitDx=0;exitDy=0;entryX=0;entryY=0.5;entryDx=0;entryDy=0;" edge="1" parent="1" source="1_GCppXKczDWo7uRgGot-138" target="1_GCppXKczDWo7uRgGot-171">
          <mxGeometry width="100" height="100" relative="1" as="geometry">
            <mxPoint x="-70" y="1360" as="sourcePoint" />
            <mxPoint x="230" y="1727" as="targetPoint" />
            <Array as="points">
              <mxPoint x="1100" y="842" />
              <mxPoint x="680" y="992" />
            </Array>
          </mxGeometry>
        </mxCell>
      </root>
    </mxGraphModel>
  </diagram>
</mxfile>
